<svg xmlns="http://www.w3.org/2000/svg" xmlns:xlink="http://www.w3.org/1999/xlink" width="500" zoomAndPan="magnify" viewBox="0 0 375 374.999991" height="500" preserveAspectRatio="xMidYMid meet" version="1.2"><defs><clipPath id="2979ff0de8"><path d="M 52 104.441406 L 322 104.441406 L 322 219 L 52 219 Z M 52 104.441406 "/></clipPath></defs><g id="01ac72736f"><g clip-rule="nonzero" clip-path="url(#2979ff0de8)"><path style=" stroke:none;fill-rule:nonzero;fill:#909092;fill-opacity:1;" d="M 171.351562 109.269531 C 164.285156 110.550781 134.042969 122.402344 80.625 144.835938 L 80.632812 144.832031 C 70.6875 149.074219 62.660156 152.75 56.558594 155.855469 L 56.527344 155.867188 C 55.785156 156.226562 55.359375 156.523438 55.257812 156.757812 C 55.273438 156.71875 55.277344 156.683594 55.265625 156.640625 C 55.269531 156.648438 55.273438 156.65625 55.277344 156.667969 L 55.207031 156.535156 C 57.070312 159.660156 74.386719 166.832031 107.15625 178.042969 L 107.140625 178.039062 L 218.363281 214.59375 L 218.429688 214.617188 C 221.488281 215.785156 223.375 216.15625 224.089844 215.730469 L 315.765625 161.109375 L 315.785156 161.097656 C 318.003906 159.820312 318.902344 158.613281 318.480469 157.476562 L 318.566406 157.664062 C 315.90625 152.667969 303.972656 146.371094 282.761719 138.769531 L 282.695312 138.742188 C 273.472656 134.925781 248.085938 127.847656 206.527344 117.511719 C 206.492188 117.5 206.460938 117.492188 206.425781 117.480469 L 176.050781 107.601562 C 175.25 107.34375 174.8125 106.484375 175.074219 105.6875 C 175.332031 104.886719 176.191406 104.449219 176.988281 104.710938 L 207.367188 114.585938 L 207.261719 114.558594 C 248.964844 124.929688 274.496094 132.054688 283.859375 135.933594 L 283.789062 135.90625 C 305.738281 143.769531 318.226562 150.546875 321.25 156.234375 C 321.285156 156.292969 321.3125 156.355469 321.335938 156.421875 C 322.351562 159.164062 321.007812 161.601562 317.304688 163.734375 L 317.324219 163.722656 L 225.648438 218.34375 C 224.089844 219.269531 221.324219 218.976562 217.347656 217.460938 L 217.414062 217.484375 L 106.191406 180.925781 L 106.171875 180.921875 C 72.695312 169.46875 54.835938 161.859375 52.59375 158.089844 C 52.566406 158.046875 52.542969 158.003906 52.523438 157.957031 C 52.445312 157.796875 52.386719 157.636719 52.339844 157.472656 C 52.152344 156.816406 52.195312 156.171875 52.46875 155.546875 C 52.871094 154.621094 53.785156 153.816406 55.207031 153.128906 L 55.179688 153.144531 C 61.34375 150.007812 69.429688 146.304688 79.441406 142.03125 L 79.449219 142.027344 C 133.070312 119.511719 163.523438 107.59375 170.808594 106.277344 C 171.636719 106.125 172.425781 106.675781 172.578125 107.5 C 172.726562 108.328125 172.175781 109.121094 171.351562 109.269531 Z M 171.351562 109.269531 "/></g><path style=" stroke:none;fill-rule:nonzero;fill:#909092;fill-opacity:1;" d="M 123.46875 188.136719 L 124.902344 216.320312 L 124.902344 216.300781 C 124.996094 217.734375 126.671875 219.945312 131.292969 222.996094 C 132.894531 224.054688 134.605469 225.253906 136.417969 226.527344 C 138.523438 228 140.777344 229.582031 143.210938 231.1875 C 153.425781 237.9375 166.742188 245.144531 184.550781 246.667969 C 245.558594 251.882812 266.632812 231.96875 266.300781 232.28125 C 266.34375 232.238281 266.390625 232.199219 266.4375 232.164062 C 269.539062 229.890625 271.203125 228.300781 271.769531 227.359375 C 272.109375 226.796875 272.765625 226.515625 273.402344 226.65625 C 272.789062 226.519531 272.445312 226.980469 272.429688 227.003906 C 272.441406 226.984375 272.496094 226.871094 272.558594 226.589844 C 273.296875 223.230469 272.207031 211.5625 269.003906 191.019531 C 268.875 190.1875 269.441406 189.410156 270.273438 189.28125 C 271.105469 189.152344 271.882812 189.71875 272.011719 190.550781 C 275.160156 210.761719 276.425781 223.179688 275.53125 227.242188 C 275.433594 227.671875 275.296875 228.113281 275.078125 228.5 C 274.703125 229.164062 273.902344 229.882812 272.746094 229.628906 L 274.378906 228.925781 C 273.457031 230.464844 271.296875 232.375 268.238281 234.617188 L 268.375 234.503906 C 268.042969 234.8125 246.109375 254.984375 184.289062 249.699219 C 165.757812 248.113281 151.945312 240.605469 141.535156 233.726562 C 139.0625 232.09375 136.773438 230.492188 134.671875 229.019531 C 132.847656 227.738281 131.179688 226.570312 129.613281 225.535156 C 125.152344 222.585938 122.070312 219.621094 121.867188 216.496094 L 121.867188 216.476562 L 120.429688 188.292969 C 120.386719 187.453125 121.03125 186.738281 121.871094 186.695312 C 122.710938 186.652344 123.425781 187.296875 123.46875 188.136719 Z M 123.46875 188.136719 "/><path style=" stroke:none;fill-rule:nonzero;fill:#909092;fill-opacity:1;" d="M 126.195312 202.648438 C 145.183594 215.289062 170.199219 223.117188 201.246094 226.144531 L 201.25 226.144531 C 216.480469 227.652344 230.433594 227.511719 243.117188 225.722656 L 243.074219 225.730469 C 254.386719 223.78125 264.527344 220.347656 273.496094 215.425781 C 274.234375 215.023438 275.160156 215.292969 275.5625 216.027344 C 275.964844 216.765625 275.699219 217.6875 274.960938 218.09375 C 265.695312 223.179688 255.238281 226.722656 243.589844 228.726562 L 243.542969 228.734375 C 230.617188 230.558594 216.421875 230.703125 200.949219 229.171875 L 200.953125 229.171875 C 169.402344 226.097656 143.917969 218.101562 124.507812 205.183594 C 123.808594 204.71875 123.621094 203.773438 124.085938 203.074219 C 124.550781 202.375 125.496094 202.183594 126.195312 202.648438 Z M 126.195312 202.648438 "/><path style=" stroke:none;fill-rule:nonzero;fill:#909092;fill-opacity:1;" d="M 266.75 152.195312 C 266.058594 152.195312 265.480469 152.730469 265.433594 153.429688 C 265.386719 154.152344 265.9375 154.78125 266.664062 154.828125 C 280.339844 155.722656 288.011719 156.484375 289.683594 157.113281 C 289.734375 157.132812 289.78125 157.148438 289.832031 157.160156 C 292.988281 157.9375 295.238281 159.257812 296.574219 161.121094 C 296.59375 161.144531 296.613281 161.167969 296.632812 161.191406 C 298.390625 163.316406 299.480469 166.125 299.90625 169.617188 L 299.917969 169.6875 C 300.378906 172.304688 301.128906 182.269531 302.167969 199.589844 C 302.207031 200.289062 302.789062 200.828125 303.480469 200.828125 C 303.507812 200.828125 303.535156 200.824219 303.5625 200.824219 C 304.285156 200.78125 304.839844 200.15625 304.796875 199.429688 C 303.761719 182.160156 303.003906 172.113281 302.523438 169.296875 C 302.039062 165.332031 300.773438 162.09375 298.71875 159.582031 L 298.714844 159.582031 C 297.015625 157.210938 294.292969 155.558594 290.554688 154.625 L 290.550781 154.625 C 288.527344 153.90625 280.621094 153.101562 266.835938 152.199219 C 266.808594 152.195312 266.777344 152.195312 266.75 152.195312 Z M 266.75 152.195312 "/><path style=" stroke:none;fill-rule:nonzero;fill:#909092;fill-opacity:1;" d="M 303.648438 198.441406 C 303.527344 198.441406 303.402344 198.449219 303.277344 198.464844 C 302.070312 198.640625 301.003906 199.648438 300.074219 201.492188 C 297.566406 206.386719 296.496094 209.707031 296.867188 211.453125 C 296.996094 212.074219 297.542969 212.5 298.152344 212.5 C 298.246094 212.5 298.335938 212.488281 298.429688 212.46875 C 299.140625 212.320312 299.59375 211.621094 299.445312 210.910156 C 299.203125 209.769531 300.195312 207.03125 302.421875 202.6875 L 302.429688 202.679688 C 302.929688 201.683594 303.328125 201.152344 303.625 201.078125 L 303.632812 201.078125 C 304.0625 201.496094 304.511719 202.613281 304.972656 204.433594 L 304.992188 204.496094 C 305.371094 205.738281 306.296875 210.175781 307.761719 217.808594 C 307.882812 218.4375 308.4375 218.878906 309.054688 218.878906 C 309.136719 218.878906 309.222656 218.871094 309.304688 218.851562 C 310.019531 218.714844 310.488281 218.023438 310.351562 217.3125 C 308.890625 209.699219 307.949219 205.191406 307.527344 203.785156 C 306.863281 201.175781 306.03125 199.519531 305.023438 198.824219 C 304.964844 198.78125 304.902344 198.746094 304.839844 198.714844 C 304.535156 198.570312 304.222656 198.484375 303.90625 198.453125 C 303.820312 198.445312 303.734375 198.441406 303.648438 198.441406 Z M 303.648438 198.441406 "/><path style=" stroke:none;fill-rule:nonzero;fill:#909092;fill-opacity:1;" d="M 303.277344 198.417969 C 302.628906 198.417969 302.0625 198.898438 301.96875 199.589844 C 301.578125 202.433594 301.296875 205.65625 301.113281 209.253906 C 300.980469 211.917969 300.992188 214.609375 301.160156 217.332031 C 301.199219 218.03125 301.78125 218.570312 302.472656 218.570312 C 302.5 218.570312 302.527344 218.570312 302.554688 218.566406 C 303.28125 218.523438 303.832031 217.898438 303.789062 217.171875 C 303.628906 214.546875 303.617188 211.953125 303.746094 209.386719 C 303.925781 205.847656 304.203125 202.691406 304.582031 199.914062 L 304.585938 199.882812 C 304.664062 199.171875 304.164062 198.527344 303.457031 198.429688 C 303.394531 198.421875 303.335938 198.417969 303.277344 198.417969 Z M 303.277344 198.417969 "/></g></svg>