<svg xmlns="http://www.w3.org/2000/svg" xmlns:xlink="http://www.w3.org/1999/xlink" width="500" zoomAndPan="magnify" viewBox="0 0 375 374.999991" height="500" preserveAspectRatio="xMidYMid meet" version="1.2"><defs><clipPath id="73d070209b"><path d="M 132 59.195312 L 244.871094 59.195312 L 244.871094 249 L 132 249 Z M 132 59.195312 "/></clipPath><clipPath id="72c60bb975"><path d="M 156 260 L 209 260 L 209 315.695312 L 156 315.695312 Z M 156 260 "/></clipPath></defs><g id="27228a9381"><g clip-rule="nonzero" clip-path="url(#73d070209b)"><path style=" stroke:none;fill-rule:nonzero;fill:#909092;fill-opacity:1;" d="M 173.539062 69.066406 C 175.367188 69.214844 177.234375 69.433594 179.128906 69.71875 C 179.261719 69.234375 179.542969 68.792969 179.953125 68.445312 C 180.339844 68.117188 180.734375 67.792969 181.132812 67.480469 C 178.632812 67.890625 176.109375 68.417969 173.539062 69.066406 Z M 206.085938 68.238281 C 205.394531 68.921875 204.617188 69.5 203.792969 70.007812 C 204.105469 69.878906 204.417969 69.75 204.730469 69.625 C 205.691406 69.246094 206.65625 68.867188 207.644531 68.601562 C 207.148438 68.457031 206.648438 68.316406 206.140625 68.179688 C 206.121094 68.203125 206.105469 68.222656 206.085938 68.238281 Z M 185.070312 70.816406 C 185.714844 70.964844 186.367188 71.117188 187.027344 71.277344 C 187.332031 70.71875 187.867188 70.316406 188.550781 70.183594 C 191.21875 69.660156 193.957031 68.742188 196.921875 67.375 C 197.242188 67.226562 198.355469 66.695312 198.589844 66.582031 C 197.222656 66.367188 195.84375 66.183594 194.46875 66.042969 L 193.84375 66.285156 C 193.117188 66.566406 192.429688 66.828125 191.808594 67.113281 C 189.109375 68.371094 186.945312 69.554688 185.070312 70.816406 Z M 202.003906 76.523438 C 202.636719 76.84375 203.261719 77.175781 203.863281 77.515625 C 205.851562 76.898438 207.882812 76.207031 210.058594 75.414062 C 210.757812 75.15625 211.476562 74.847656 212.210938 74.535156 C 214.078125 73.734375 215.996094 72.914062 217.976562 72.695312 C 216.585938 71.96875 215.128906 71.296875 213.605469 70.675781 C 213.527344 71.1875 213.253906 71.667969 212.851562 71.976562 C 211.1875 73.253906 209.140625 73.921875 207.160156 74.566406 C 206.230469 74.871094 205.347656 75.15625 204.535156 75.5 C 203.753906 75.828125 202.898438 76.175781 202.003906 76.523438 Z M 209.769531 81.660156 C 210.546875 81.394531 211.320312 81.125 212.09375 80.851562 C 214.296875 80.085938 216.578125 79.289062 218.855469 78.59375 C 219.386719 78.429688 219.925781 78.25 220.46875 78.070312 C 221.816406 77.625 223.191406 77.167969 224.597656 76.902344 C 223.625 76.148438 222.601562 75.429688 221.535156 74.75 C 221.527344 75.21875 221.328125 75.675781 220.96875 76.042969 C 218.988281 78.046875 216.082031 78.957031 213.515625 79.757812 C 212.894531 79.953125 212.289062 80.140625 211.707031 80.34375 C 210.886719 80.625 210.050781 80.902344 209.203125 81.171875 C 209.394531 81.332031 209.582031 81.492188 209.769531 81.660156 Z M 213.609375 85.75 C 214.480469 86.851562 215.296875 88.015625 216.054688 89.234375 C 216.402344 89.015625 216.75 88.796875 217.097656 88.582031 C 218.101562 87.957031 219.050781 87.367188 219.925781 86.746094 C 220.804688 86.121094 221.683594 85.375 222.617188 84.578125 C 223.363281 83.941406 224.125 83.292969 224.90625 82.695312 C 224.019531 82.929688 223.117188 83.125 222.226562 83.316406 C 221.078125 83.566406 219.992188 83.796875 218.984375 84.105469 C 217.191406 84.648438 215.402344 85.199219 213.609375 85.75 Z M 218.898438 94.664062 C 219.757812 96.65625 220.488281 98.773438 221.082031 100.992188 C 221.957031 100.191406 222.84375 99.429688 223.710938 98.683594 L 224.730469 97.804688 C 227.332031 95.550781 230.425781 93.054688 234.273438 91.964844 C 234.519531 91.890625 234.765625 91.855469 235.011719 91.855469 C 235.253906 91.855469 235.488281 91.890625 235.710938 91.957031 C 234.832031 89.375 233.652344 87.003906 232.160156 84.816406 C 231.640625 84.050781 231.074219 83.300781 230.472656 82.5625 C 230.722656 85.96875 226.988281 88.683594 224.492188 90.503906 L 223.871094 90.953125 C 223.332031 91.355469 222.777344 91.777344 222.214844 92.207031 C 221.144531 93.027344 220.042969 93.867188 218.898438 94.664062 Z M 222.40625 107.609375 C 222.707031 109.773438 222.933594 112.023438 223.070312 114.339844 C 224.742188 112.121094 226.902344 110.128906 228.882812 108.296875 C 229.367188 107.851562 229.84375 107.410156 230.292969 106.984375 C 232.917969 104.492188 235.226562 102.605469 237.5 101.09375 C 237.371094 99.402344 237.15625 97.785156 236.847656 96.238281 C 236.566406 96.515625 236.207031 96.730469 235.785156 96.859375 C 232.28125 97.941406 229.273438 100.890625 226.621094 103.492188 L 226.410156 103.699219 C 226.011719 104.089844 225.609375 104.5 225.195312 104.921875 C 224.3125 105.832031 223.402344 106.769531 222.40625 107.609375 Z M 223.25 120.484375 C 223.25 124.867188 222.980469 129.464844 222.441406 134.421875 C 223.875 132.957031 225.4375 131.613281 226.882812 130.375 C 227.332031 129.992188 227.765625 129.617188 228.1875 129.25 C 230.613281 127.132812 233.09375 125.113281 235.042969 123.550781 C 236.480469 117.6875 237.308594 112.503906 237.558594 107.792969 C 235.957031 109.125 234.304688 110.679688 232.476562 112.574219 C 231.921875 113.152344 231.375 113.757812 230.824219 114.371094 C 228.757812 116.648438 226.625 119.003906 223.785156 120.320312 C 223.613281 120.402344 223.429688 120.457031 223.25 120.484375 Z M 221.183594 143.660156 C 220.625 147.117188 219.945312 150.75 219.097656 154.839844 C 221.308594 152.195312 224.246094 149.039062 227.429688 148.140625 C 228.304688 145.539062 229.175781 142.941406 230.035156 140.34375 C 230.742188 138.203125 231.519531 135.816406 232.296875 133.316406 C 231.933594 133.65625 231.570312 133.992188 231.210938 134.332031 C 230.238281 135.246094 229.296875 136.273438 228.292969 137.359375 C 226.132812 139.703125 223.902344 142.121094 221.183594 143.660156 Z M 215.4375 170.78125 C 217.015625 169.15625 218.621094 167.570312 220.199219 166.015625 C 220.804688 165.414062 221.417969 164.8125 222.027344 164.210938 C 222.65625 162.304688 223.292969 160.398438 223.933594 158.496094 C 222.972656 159.613281 222.035156 160.78125 221.132812 161.992188 C 219.070312 164.746094 217.3125 167.371094 215.753906 170.011719 C 215.683594 170.136719 215.609375 170.265625 215.535156 170.394531 C 215.503906 170.523438 215.472656 170.652344 215.4375 170.78125 Z M 211.738281 184.039062 C 211.40625 185.210938 211.101562 186.296875 210.816406 187.328125 C 212.4375 185.898438 213.984375 184.394531 215.113281 182.703125 C 215.46875 182.175781 215.96875 181.800781 216.550781 181.617188 C 217.058594 179.882812 217.585938 178.121094 218.144531 176.3125 C 217.789062 176.714844 217.445312 177.113281 217.105469 177.507812 C 216.519531 178.183594 215.957031 178.96875 215.359375 179.796875 C 214.269531 181.304688 213.144531 182.855469 211.738281 184.039062 Z M 211.683594 195.609375 C 212.050781 195.609375 212.40625 195.691406 212.730469 195.839844 C 212.964844 194.871094 213.207031 193.886719 213.460938 192.890625 C 213.070312 193.292969 212.664062 193.695312 212.242188 194.105469 C 211.78125 194.550781 211.265625 195.15625 210.71875 195.796875 C 211.03125 195.671875 211.355469 195.609375 211.683594 195.609375 Z M 208.140625 210.011719 C 209.082031 210.011719 210 210.472656 210.589844 211.191406 C 210.558594 208.4375 210.582031 205.625 211.121094 203.023438 C 211.238281 202.449219 211.359375 201.875 211.480469 201.296875 C 209.652344 202.566406 208.082031 203.902344 206.796875 205.28125 C 206.53125 207.089844 206.324219 208.917969 206.136719 210.796875 C 206.707031 210.285156 207.398438 210.011719 208.140625 210.011719 Z M 205.097656 220.808594 C 204.941406 222.0625 204.75 223.425781 204.503906 224.851562 C 204.550781 224.816406 205.046875 224.46875 205.046875 224.46875 C 205.921875 223.839844 206.851562 223.15625 207.667969 222.359375 C 208.195312 221.84375 208.847656 221.570312 209.554688 221.570312 C 209.703125 221.570312 209.847656 221.585938 209.992188 221.609375 C 210.511719 219.421875 210.621094 217.050781 210.625 214.664062 C 210.554688 214.75 210.484375 214.835938 210.40625 214.914062 C 208.4375 216.957031 206.675781 218.816406 205.097656 220.808594 Z M 203.011719 231.300781 C 203.308594 231.066406 203.605469 230.820312 203.898438 230.574219 C 203.679688 230.554688 203.46875 230.503906 203.265625 230.425781 C 203.183594 230.71875 203.097656 231.011719 203.011719 231.300781 Z M 164.089844 240.449219 C 166.273438 240.449219 168.492188 240.535156 170.632812 240.621094 C 172.273438 240.6875 173.910156 240.753906 175.546875 240.777344 L 175.816406 240.785156 C 176.664062 240.796875 177.550781 240.8125 178.460938 240.8125 C 183.542969 240.8125 189.160156 240.328125 192.335938 236.738281 C 196.839844 231.644531 197.640625 223.273438 198.347656 215.890625 C 198.484375 214.5 198.609375 213.148438 198.761719 211.871094 C 198.597656 211.714844 198.460938 211.527344 198.355469 211.324219 C 197.261719 209.195312 197.832031 206.578125 200.003906 203.746094 C 201.296875 196.769531 203.039062 190.167969 205.175781 182.285156 C 209.476562 166.40625 214.09375 147.660156 215.738281 129.007812 C 216.5 120.347656 217.023438 107.820312 212.957031 97.835938 C 212.769531 97.894531 212.582031 97.953125 212.398438 98.003906 C 212.175781 98.070312 211.949219 98.101562 211.726562 98.101562 C 210.886719 98.101562 210.15625 97.652344 209.765625 96.902344 C 209.359375 96.109375 209.433594 95.152344 209.960938 94.410156 C 210.1875 94.089844 210.445312 93.773438 210.746094 93.4375 C 209.550781 91.480469 208.160156 89.734375 206.589844 88.234375 C 206.332031 87.988281 206.066406 87.757812 205.792969 87.527344 L 205.699219 87.441406 C 205.375 87.269531 205.09375 87.019531 204.867188 86.710938 C 203.324219 85.445312 201.585938 84.277344 199.699219 83.238281 C 199.476562 83.152344 199.269531 83.039062 199.078125 82.898438 C 195.125 80.808594 190.5 79.21875 184.945312 78.039062 C 178.679688 76.703125 173.152344 76.054688 168.050781 76.054688 C 164.347656 76.054688 160.855469 76.410156 157.675781 77.113281 C 148.769531 79.085938 143.359375 83.640625 141.140625 91.027344 C 138.328125 100.390625 139.21875 110.625 140.308594 118.496094 C 141.230469 125.140625 142.628906 131.820312 143.976562 138.28125 C 144.519531 140.875 145.058594 143.464844 145.574219 146.0625 C 146.6875 151.679688 147.542969 157.433594 148.371094 162.996094 C 149 167.207031 149.652344 171.558594 150.402344 175.808594 C 151.023438 179.300781 151.683594 182.816406 152.347656 186.351562 C 155.703125 204.191406 159.171875 222.625 157.671875 240.777344 C 159.605469 240.554688 161.679688 240.449219 164.089844 240.449219 Z M 187.816406 248.53125 C 187.027344 248.53125 186.253906 248.207031 185.652344 247.636719 C 183.234375 248.050781 180.527344 248.246094 177.199219 248.246094 C 174.703125 248.246094 172.164062 248.136719 169.710938 248.03125 C 167.285156 247.925781 165 247.828125 162.78125 247.828125 C 160.167969 247.828125 158.113281 247.964844 156.328125 248.261719 C 156.101562 248.300781 155.890625 248.320312 155.6875 248.320312 C 154.183594 248.320312 153.007812 247.355469 152.644531 245.875 C 152.128906 245.394531 151.855469 244.730469 151.875 243.996094 C 152.410156 224.335938 148.753906 204.5 145.21875 185.316406 C 144.671875 182.347656 144.125 179.382812 143.597656 176.425781 C 142.867188 172.367188 142.242188 168.222656 141.636719 164.214844 C 140.78125 158.550781 139.894531 152.691406 138.710938 147.011719 C 138.289062 144.972656 137.851562 142.9375 137.414062 140.898438 C 136.050781 134.535156 134.640625 127.953125 133.660156 121.386719 C 131.195312 104.835938 130.121094 84.628906 143.835938 75.214844 C 145.46875 74.089844 147.273438 73.101562 149.207031 72.261719 C 154.339844 69.050781 160.308594 66.984375 165.472656 65.382812 C 174.089844 62.714844 181.402344 61.164062 188.433594 60.507812 C 188.964844 59.9375 189.664062 59.617188 190.414062 59.617188 C 190.429688 59.617188 190.519531 59.621094 190.539062 59.621094 C 191.785156 59.683594 193.09375 59.773438 194.433594 59.898438 C 195.652344 59.453125 196.753906 59.238281 197.796875 59.238281 C 198.082031 59.238281 198.367188 59.253906 198.65625 59.289062 C 199.222656 59.359375 199.703125 59.652344 200 60.121094 C 200.101562 60.277344 200.175781 60.449219 200.226562 60.632812 C 209.929688 62.195312 226.605469 66.699219 236.085938 79.519531 C 240.164062 85.035156 242.664062 91.707031 243.515625 99.355469 C 244.207031 99.828125 244.6875 100.597656 244.757812 101.414062 C 244.828125 102.234375 244.484375 102.988281 243.820312 103.492188 C 243.988281 108.167969 243.613281 113.152344 242.683594 118.671875 C 243.425781 118.878906 244.046875 119.46875 244.347656 120.289062 C 244.742188 121.367188 244.441406 122.539062 243.574219 123.273438 C 243.082031 123.691406 242.59375 124.121094 242.101562 124.550781 C 241.863281 124.761719 241.625 124.972656 241.382812 125.183594 C 240.464844 129.171875 239.289062 133.433594 237.789062 138.195312 C 235.796875 144.507812 233.699219 150.890625 231.667969 157.066406 C 229.945312 162.316406 228.214844 167.570312 226.535156 172.832031 C 225.929688 174.734375 225.289062 176.664062 224.636719 178.621094 C 221.4375 188.234375 218.132812 198.175781 217.785156 207.789062 C 217.742188 208.953125 217.726562 210.136719 217.707031 211.332031 C 217.585938 218.566406 217.453125 226.765625 211.914062 232.601562 C 209.148438 235.511719 205.75 238.300781 201.214844 241.371094 L 199.855469 242.300781 C 196.402344 244.664062 192.835938 247.105469 188.722656 248.390625 C 188.425781 248.484375 188.121094 248.53125 187.816406 248.53125 "/></g><g clip-rule="nonzero" clip-path="url(#72c60bb975)"><path style=" stroke:none;fill-rule:nonzero;fill:#909092;fill-opacity:1;" d="M 175.480469 267.472656 C 175.003906 267.765625 174.511719 268.019531 174.03125 268.265625 C 173.769531 268.398438 173.511719 268.53125 173.265625 268.664062 C 171.367188 269.707031 169.640625 270.808594 168.125 271.933594 C 166.53125 273.117188 164.816406 274.429688 163.335938 275.875 C 166.859375 274.964844 170.496094 274.359375 174.039062 273.765625 L 174.941406 273.617188 C 175.585938 273.503906 176.3125 273.363281 177.089844 273.207031 C 179.371094 272.757812 182.207031 272.191406 184.804688 272.191406 C 185.800781 272.191406 186.691406 272.273438 187.5 272.433594 C 188.515625 270.71875 189.703125 269.101562 191.097656 267.519531 C 188.167969 267.707031 185.410156 267.839844 182.613281 267.839844 C 180.007812 267.839844 177.667969 267.71875 175.480469 267.472656 Z M 196.972656 275.644531 C 196.742188 276.253906 196.511719 276.855469 196.28125 277.457031 C 196.128906 277.847656 195.988281 278.242188 195.851562 278.636719 C 196.113281 278.167969 196.378906 277.699219 196.648438 277.230469 C 196.773438 277.011719 196.925781 276.816406 197.097656 276.644531 C 197.050781 276.308594 197.011719 275.972656 196.972656 275.644531 Z M 198.300781 287.351562 C 198.558594 287.351562 198.8125 287.390625 199.050781 287.460938 C 198.902344 286.78125 198.757812 286.101562 198.617188 285.421875 C 198.308594 286.101562 198.027344 286.761719 197.765625 287.40625 C 197.9375 287.371094 198.117188 287.351562 198.300781 287.351562 Z M 199.699219 297.074219 C 200.351562 297.074219 200.996094 297.308594 201.457031 297.714844 C 201.457031 297.714844 200.566406 294.019531 200.277344 292.796875 C 199.992188 294.171875 199.664062 295.636719 199.273438 297.109375 C 199.410156 297.085938 199.550781 297.074219 199.699219 297.074219 Z M 164.738281 285.824219 C 166.710938 292.292969 168.800781 299.777344 169.1875 307.628906 C 171.707031 306.851562 174.429688 306.476562 176.878906 306.140625 C 177.40625 306.066406 177.929688 305.992188 178.4375 305.917969 C 180.203125 305.660156 181.96875 305.425781 183.738281 305.191406 C 185.570312 304.945312 187.398438 304.703125 189.230469 304.433594 C 189.265625 300.367188 189.300781 296.167969 189.054688 292.0625 C 189.042969 291.835938 189.03125 291.496094 189.011719 291.074219 C 188.933594 289.007812 188.710938 283.230469 187.644531 280.554688 C 187.445312 280.605469 187.230469 280.636719 187.011719 280.636719 C 186.257812 280.636719 185.566406 280.300781 185.167969 279.742188 C 185.050781 279.570312 184.957031 279.390625 184.902344 279.203125 C 184.671875 279.191406 184.4375 279.191406 184.199219 279.191406 C 181.011719 279.191406 177.484375 279.933594 174.375 280.585938 C 173.667969 280.734375 172.972656 280.878906 172.304688 281.011719 L 170.753906 281.316406 C 168.738281 281.710938 166.675781 282.117188 164.664062 282.628906 C 164.800781 282.992188 164.859375 283.398438 164.824219 283.820312 C 164.777344 284.402344 164.75 285.039062 164.738281 285.824219 Z M 166.417969 315.664062 C 165.417969 315.664062 164.523438 315.183594 163.960938 314.339844 C 163.484375 313.625 163.296875 312.710938 163.417969 311.851562 C 163.085938 311.492188 162.835938 311.042969 162.691406 310.53125 C 161.164062 305.226562 160.089844 299.757812 159.492188 294.285156 C 159.441406 293.816406 159.378906 293.324219 159.316406 292.8125 C 159.226562 292.109375 159.132812 291.375 159.058594 290.628906 C 158.425781 288.484375 157.757812 286.347656 157.085938 284.214844 L 156.285156 281.65625 C 155.964844 280.605469 156.15625 279.527344 156.765625 278.675781 C 156.597656 278.28125 156.546875 277.832031 156.636719 277.359375 C 157.457031 272.984375 161.253906 269.742188 164.75 267.042969 L 165.308594 266.609375 C 167.648438 264.777344 171.1875 262.011719 174.507812 262.011719 C 175.289062 262.011719 176.023438 262.167969 176.691406 262.476562 C 176.71875 262.488281 176.746094 262.5 176.773438 262.515625 C 180.96875 261.957031 185.265625 261.636719 189.425781 261.324219 C 192.351562 261.105469 195.378906 260.875 198.324219 260.570312 C 199.015625 260.257812 199.699219 260.089844 200.367188 260.070312 C 201.042969 260.070312 201.660156 260.335938 202.089844 260.78125 C 202.476562 261.183594 202.683594 261.699219 202.671875 262.234375 C 202.902344 262.679688 203.015625 263.152344 203.003906 263.625 C 202.664062 274.304688 205.109375 284.296875 207.695312 294.871094 C 208.011719 296.152344 208.324219 297.433594 208.632812 298.714844 C 208.988281 300.195312 208.515625 301.519531 207.304688 302.449219 L 206.144531 303.335938 C 203.351562 305.488281 200.460938 307.710938 197.378906 309.621094 C 196.804688 309.976562 196.195312 310.15625 195.566406 310.15625 C 195.339844 310.15625 195.113281 310.132812 194.894531 310.085938 C 194.378906 310.492188 193.742188 310.773438 193.003906 310.902344 C 190.414062 311.367188 187.773438 311.734375 185.214844 312.09375 C 183.179688 312.375 181.074219 312.671875 179.015625 313.011719 C 177.179688 313.316406 175.3125 313.78125 173.503906 314.234375 C 171.34375 314.777344 169.113281 315.335938 166.851562 315.636719 C 166.703125 315.65625 166.558594 315.664062 166.417969 315.664062 "/></g><path style=" stroke:none;fill-rule:nonzero;fill:#909092;fill-opacity:1;" d="M 226.578125 128.945312 C 226.46875 128.945312 226.355469 128.941406 226.242188 128.929688 C 225.375 128.847656 224.8125 128.167969 224.578125 127.5625 C 223.746094 125.417969 225.589844 123.59375 226.808594 122.382812 C 227.007812 122.183594 227.199219 121.996094 227.363281 121.820312 C 228.984375 120.074219 230.695312 118.378906 232.453125 116.652344 C 232.945312 116.164062 233.585938 115.894531 234.253906 115.894531 C 235.304688 115.894531 236.320312 116.570312 236.722656 117.539062 C 237.101562 118.433594 236.898438 119.40625 236.179688 120.132812 L 235.621094 120.699219 C 234.160156 122.183594 232.648438 123.722656 231.257812 125.296875 C 231.019531 125.570312 230.789062 125.878906 230.550781 126.195312 C 229.632812 127.421875 228.492188 128.945312 226.578125 128.945312 "/></g></svg>