<svg xmlns="http://www.w3.org/2000/svg" xmlns:xlink="http://www.w3.org/1999/xlink" width="500" zoomAndPan="magnify" viewBox="0 0 375 374.999991" height="500" preserveAspectRatio="xMidYMid meet" version="1.2"><defs><clipPath id="5590a95094"><path d="M 168 245 L 224 245 L 224 293.632812 L 168 293.632812 Z M 168 245 "/></clipPath><clipPath id="f2570a513a"><path d="M 262 196 L 289.324219 196 L 289.324219 214 L 262 214 Z M 262 196 "/></clipPath><clipPath id="30dc8c2f39"><path d="M 159 81.382812 L 175 81.382812 L 175 109 L 159 109 Z M 159 81.382812 "/></clipPath></defs><g id="a167783baf"><g clip-rule="nonzero" clip-path="url(#5590a95094)"><path style=" stroke:none;fill-rule:nonzero;fill:#909092;fill-opacity:1;" d="M 197.1875 293.246094 C 191.816406 293.246094 181.601562 292.554688 175.644531 289.753906 C 172.042969 288.058594 170.207031 278.742188 168.878906 255.367188 C 168.78125 253.683594 169.328125 252.179688 170.484375 250.898438 C 173.449219 247.648438 180.191406 246.066406 193.011719 245.625 C 205.769531 245.175781 221.320312 246.265625 222.875 253.898438 C 223.714844 258.03125 222.070312 271.089844 220.160156 285.25 L 219.851562 287.566406 C 219.566406 289.71875 217.765625 291.921875 199.710938 293.175781 C 199.097656 293.21875 198.230469 293.246094 197.1875 293.246094 Z M 197.558594 249.160156 C 196.15625 249.160156 194.679688 249.1875 193.140625 249.238281 C 188.992188 249.386719 176.371094 249.816406 173.164062 253.328125 C 172.671875 253.871094 172.457031 254.453125 172.5 255.144531 C 173.960938 280.710938 176.078125 285.742188 177.210938 286.46875 C 183.3125 289.339844 195.441406 289.832031 199.46875 289.554688 C 212.796875 288.628906 215.726562 287.195312 216.304688 286.78125 L 216.582031 284.757812 C 217.820312 275.578125 220.128906 258.488281 219.332031 254.605469 C 218.753906 251.789062 211.785156 249.160156 197.558594 249.160156 Z M 193.082031 247.433594 Z M 193.082031 247.433594 "/></g><path style=" stroke:none;fill-rule:nonzero;fill:#909092;fill-opacity:1;" d="M 171.089844 263.535156 C 170.425781 263.535156 169.785156 263.171875 169.472656 262.535156 C 169.023438 261.644531 169.386719 260.554688 170.277344 260.105469 C 188.742188 250.839844 219.21875 256.777344 220.507812 257.027344 C 221.492188 257.226562 222.125 258.175781 221.925781 259.152344 C 221.726562 260.128906 220.773438 260.769531 219.796875 260.578125 C 219.496094 260.519531 189.25 254.632812 171.902344 263.335938 C 171.636719 263.476562 171.359375 263.535156 171.089844 263.535156 Z M 171.089844 263.535156 "/><path style=" stroke:none;fill-rule:nonzero;fill:#909092;fill-opacity:1;" d="M 179.429688 271.210938 C 178.679688 271.210938 177.980469 270.738281 177.71875 269.992188 C 177.390625 269.050781 177.894531 268.011719 178.84375 267.695312 C 195.648438 261.894531 219.453125 265.9375 220.464844 266.113281 C 221.449219 266.285156 222.105469 267.21875 221.941406 268.203125 C 221.769531 269.1875 220.828125 269.855469 219.851562 269.683594 C 219.609375 269.636719 195.949219 265.628906 180.035156 271.117188 C 179.820312 271.175781 179.621094 271.210938 179.429688 271.210938 Z M 179.429688 271.210938 "/><path style=" stroke:none;fill-rule:nonzero;fill:#909092;fill-opacity:1;" d="M 219.402344 279.050781 C 219.226562 279.050781 219.046875 279.027344 218.863281 278.972656 C 218.667969 278.914062 206.738281 275.378906 191.152344 278.109375 C 190.167969 278.28125 189.226562 277.625 189.050781 276.640625 C 188.878906 275.65625 189.535156 274.710938 190.523438 274.539062 C 207.066406 271.644531 219.410156 275.351562 219.929688 275.515625 C 220.886719 275.808594 221.421875 276.820312 221.128906 277.78125 C 220.886719 278.550781 220.171875 279.050781 219.402344 279.050781 Z M 219.402344 279.050781 "/><path style=" stroke:none;fill-rule:nonzero;fill:#909092;fill-opacity:1;" d="M 213.566406 249.429688 C 210.722656 239.929688 214.914062 230.316406 218.925781 223.921875 C 220.941406 220.714844 223.238281 217.679688 225.460938 214.742188 C 228.242188 211.066406 231.113281 207.265625 233.34375 203.226562 C 238.476562 193.925781 240.386719 183.035156 238.710938 172.550781 C 237.292969 163.648438 233.257812 155.253906 227.351562 148.933594 C 217.792969 138.699219 202.667969 133.210938 186.875 134.242188 C 179.421875 134.726562 168.695312 136.851562 159.929688 144.179688 C 151.441406 151.285156 146.1875 162.585938 145.875 174.417969 C 145.582031 185.542969 149.453125 196.988281 156.785156 206.640625 C 158.929688 209.46875 161.382812 212.164062 163.761719 214.777344 C 166.726562 218.035156 169.792969 221.398438 172.371094 225.121094 C 178.082031 233.367188 180.019531 242.21875 177.667969 249.410156 L 174.226562 248.289062 C 176.226562 242.1875 174.460938 234.492188 169.394531 227.1875 C 166.949219 223.660156 163.96875 220.386719 161.082031 217.222656 C 158.652344 214.550781 156.136719 211.792969 153.898438 208.835938 C 146.074219 198.535156 141.933594 186.277344 142.253906 174.332031 C 142.609375 161.46875 148.347656 149.167969 157.625 141.40625 C 167.140625 133.445312 178.664062 131.15625 186.65625 130.628906 C 203.511719 129.53125 219.730469 135.441406 230.023438 146.464844 C 236.410156 153.308594 240.777344 162.367188 242.308594 171.980469 C 244.105469 183.261719 242.054688 194.980469 236.53125 204.984375 C 234.171875 209.253906 231.226562 213.152344 228.363281 216.929688 C 226.1875 219.808594 223.929688 222.78125 222.003906 225.847656 C 218.390625 231.605469 214.59375 240.1875 217.042969 248.390625 Z M 213.566406 249.429688 "/><path style=" stroke:none;fill-rule:nonzero;fill:#909092;fill-opacity:1;" d="M 199.988281 248.738281 C 197.792969 240.605469 198.535156 225.933594 202.503906 216.375 C 200.460938 216.027344 198.605469 215.433594 197.246094 214.65625 C 197.03125 214.535156 196.824219 214.402344 196.625 214.285156 C 193.96875 215.667969 190.902344 216.425781 187.722656 216.433594 C 187.6875 216.433594 187.660156 216.433594 187.625 216.433594 C 190.765625 226.046875 191.367188 236.964844 189.355469 248.460938 L 185.785156 247.839844 C 187.800781 236.308594 187.054688 225.441406 183.648438 216.027344 C 180.105469 215.3125 176.890625 213.636719 174.488281 211.199219 C 173.65625 210.359375 172.578125 209.046875 172.65625 207.289062 C 172.714844 206.046875 173.390625 204.921875 174.523438 204.214844 C 175.851562 203.375 177.632812 203.21875 179.050781 203.816406 C 181.046875 204.652344 183.433594 206.832031 184.375 208.664062 C 185.058594 209.996094 185.691406 211.363281 186.261719 212.753906 C 186.734375 212.796875 187.203125 212.804688 187.6875 212.8125 C 189.691406 212.804688 191.644531 212.441406 193.410156 211.757812 C 191.074219 209.40625 189.726562 206.589844 189.648438 203.730469 C 189.578125 200.972656 191.074219 198.101562 193.46875 196.417969 C 195.492188 194.988281 197.84375 194.636719 199.925781 195.441406 C 202.890625 196.582031 204.835938 199.820312 204.65625 203.324219 C 204.472656 206.753906 202.503906 209.460938 200.878906 211.121094 C 200.59375 211.414062 200.289062 211.699219 199.976562 211.976562 C 201.136719 212.441406 202.613281 212.777344 204.179688 212.960938 C 205.199219 211.242188 206.375 209.832031 207.695312 208.828125 C 210.203125 206.9375 213.023438 206.882812 214.691406 207.679688 C 215.898438 208.25 216.644531 209.3125 216.6875 210.503906 C 216.757812 212.390625 215.804688 214.03125 214.015625 215.113281 C 212.078125 216.28125 209.234375 216.765625 206.304688 216.730469 C 202.554688 224.933594 201.238281 239.558594 203.460938 247.796875 Z M 212.390625 210.808594 C 211.742188 210.808594 210.828125 211.007812 209.902344 211.707031 C 209.433594 212.0625 208.992188 212.492188 208.5625 213.011719 C 209.988281 212.867188 211.265625 212.546875 212.15625 212 C 212.847656 211.585938 213.03125 211.1875 213.074219 210.902344 C 212.925781 210.851562 212.683594 210.808594 212.390625 210.808594 Z M 177.210938 207.074219 C 176.941406 207.074219 176.664062 207.144531 176.449219 207.273438 C 176.347656 207.34375 176.269531 207.421875 176.269531 207.453125 C 176.269531 207.539062 176.3125 207.886719 177.0625 208.648438 C 178.386719 209.988281 180.035156 211.042969 181.871094 211.75 C 181.644531 211.265625 181.402344 210.792969 181.160156 210.316406 C 180.597656 209.226562 178.859375 207.660156 177.652344 207.152344 C 177.519531 207.101562 177.375 207.074219 177.210938 207.074219 Z M 197.679688 198.636719 C 196.789062 198.636719 196.019531 199.0625 195.578125 199.382812 C 194.167969 200.375 193.253906 202.085938 193.296875 203.644531 C 193.347656 205.855469 194.617188 208.09375 196.78125 209.925781 C 197.332031 209.519531 197.84375 209.070312 198.320312 208.585938 C 199.996094 206.867188 200.972656 204.921875 201.066406 203.125 C 201.164062 201.230469 200.125 199.382812 198.65625 198.8125 C 198.308594 198.691406 197.988281 198.636719 197.679688 198.636719 Z M 197.679688 198.636719 "/><g clip-rule="nonzero" clip-path="url(#f2570a513a)"><path style=" stroke:none;fill-rule:nonzero;fill:#909092;fill-opacity:1;" d="M 264.253906 197.011719 C 265.367188 196.042969 266.882812 196.382812 268.152344 196.769531 C 274.21875 198.636719 280.296875 200.503906 286.363281 202.363281 C 287.472656 202.699219 288.691406 203.148438 289.121094 204.308594 C 289.3125 204.816406 289.320312 205.40625 289.285156 205.984375 C 289.113281 209.167969 286.890625 214.664062 280.796875 212.917969 C 278.1875 212.175781 256.449219 203.773438 264.253906 197.011719 Z M 264.253906 197.011719 "/></g><path style=" stroke:none;fill-rule:nonzero;fill:#909092;fill-opacity:1;" d="M 220.507812 112.699219 C 219.730469 111.628906 220.136719 110.140625 220.578125 108.886719 C 222.675781 102.898438 224.777344 96.917969 226.871094 90.925781 C 227.25 89.835938 227.734375 88.636719 228.796875 88.1875 C 229.261719 87.988281 229.789062 87.96875 230.292969 87.980469 C 233.101562 88.066406 240.335938 92.550781 237.328125 97.261719 C 235.875 99.5625 225.9375 120.1875 220.507812 112.699219 Z M 220.507812 112.699219 "/><g clip-rule="nonzero" clip-path="url(#30dc8c2f39)"><path style=" stroke:none;fill-rule:nonzero;fill:#909092;fill-opacity:1;" d="M 174.160156 101.117188 C 174.269531 102.570312 174.375 104.054688 173.953125 105.449219 C 173.527344 106.839844 172.457031 108.128906 171.019531 108.378906 C 169.722656 108.601562 168.394531 107.9375 167.496094 106.96875 C 166.59375 106 166.050781 104.773438 165.515625 103.5625 C 163.882812 99.871094 162.257812 96.183594 160.621094 92.480469 C 159.421875 89.769531 158.28125 86.398438 160.078125 84.027344 C 160.960938 82.863281 162.394531 82.238281 163.820312 81.894531 C 165.722656 81.425781 167.804688 81.382812 169.570312 82.222656 C 174.78125 84.703125 173.769531 96.328125 174.160156 101.117188 Z M 174.160156 101.117188 "/></g><path style=" stroke:none;fill-rule:nonzero;fill:#909092;fill-opacity:1;" d="M 268.03125 145.78125 C 266.632812 145.960938 265.195312 146.144531 263.761719 145.875 C 262.328125 145.609375 260.898438 144.796875 260.425781 143.621094 C 259.992188 142.554688 260.433594 141.40625 261.238281 140.601562 C 262.042969 139.800781 263.15625 139.261719 264.246094 138.753906 C 267.589844 137.171875 270.9375 135.589844 274.289062 134.007812 C 276.753906 132.839844 279.863281 131.691406 282.464844 133.039062 C 283.753906 133.703125 284.59375 134.855469 285.164062 136.011719 C 285.925781 137.570312 286.304688 139.289062 285.769531 140.808594 C 284.1875 145.289062 272.65625 145.167969 268.03125 145.78125 Z M 268.03125 145.78125 "/><path style=" stroke:none;fill-rule:nonzero;fill:#909092;fill-opacity:1;" d="M 134.414062 129.425781 C 133.289062 131.933594 129.347656 130.558594 126.800781 129.988281 C 121.335938 128.761719 115.917969 127.222656 110.582031 125.371094 C 109.269531 124.914062 107.730469 124.164062 107.507812 122.554688 C 107.375 121.648438 107.722656 120.746094 108.09375 119.933594 C 110.84375 113.796875 112.847656 112.5 118.476562 115.207031 C 123.429688 117.609375 136.679688 124.386719 134.414062 129.425781 Z M 134.414062 129.425781 "/><path style=" stroke:none;fill-rule:nonzero;fill:#909092;fill-opacity:1;" d="M 116.945312 168.402344 C 116.9375 170.925781 106.011719 172.835938 99.542969 173.15625 C 97.210938 173.277344 90.875 173.46875 89.042969 172.023438 C 87.203125 170.570312 85.324219 163.207031 87.859375 161.773438 C 92.484375 159.160156 116.960938 159.160156 116.945312 168.402344 Z M 116.945312 168.402344 "/><path style=" stroke:none;fill-rule:nonzero;fill:#909092;fill-opacity:1;" d="M 120.75 222.382812 C 119.0625 223.945312 117.359375 225.539062 115.320312 226.59375 C 113.28125 227.65625 109.777344 228.746094 107.679688 226.339844 C 105.992188 224.414062 105.804688 221.207031 107.460938 219.609375 C 112.96875 214.292969 119.355469 211.058594 124.679688 210.195312 C 135.726562 208.414062 123.410156 219.910156 120.75 222.382812 Z M 120.75 222.382812 "/></g></svg>