<svg xmlns="http://www.w3.org/2000/svg" xmlns:xlink="http://www.w3.org/1999/xlink" width="500" zoomAndPan="magnify" viewBox="0 0 375 374.999991" height="500" preserveAspectRatio="xMidYMid meet" version="1.2"><g id="f97e4254e8"><path style=" stroke:none;fill-rule:nonzero;fill:#b4b4b4;fill-opacity:1;" d="M 286.046875 117.738281 L 292.097656 105.9375 "/><path style=" stroke:none;fill-rule:nonzero;fill:#545454;fill-opacity:1;" d="M 276.148438 145.273438 C 276.316406 145.265625 276.484375 145.246094 276.652344 145.226562 C 266.160156 146.460938 258.203125 138.421875 258.203125 129.117188 C 258.203125 119.773438 266.15625 112.027344 276.097656 112.949219 C 275.410156 114.324219 274.574219 113.921875 273.585938 114.367188 C 269.820312 115.976562 266.648438 118.832031 264.703125 122.257812 C 264.398438 122.785156 264.117188 123.351562 264.070312 123.957031 C 264.03125 124.570312 264.289062 125.238281 264.824219 125.523438 C 265.398438 125.832031 266.132812 125.632812 266.71875 125.304688 C 267.292969 124.988281 267.832031 124.5625 268.476562 124.414062 C 269.132812 124.265625 269.945312 124.542969 270.09375 125.175781 C 270.234375 125.773438 269.785156 126.308594 269.398438 126.765625 C 267.125 129.464844 265.785156 132.9375 265.675781 136.460938 C 266.550781 136.789062 267.425781 136.035156 268.078125 135.371094 C 268.734375 134.695312 269.695312 133.992188 270.519531 134.4375 C 271.054688 134.726562 271.273438 135.429688 271.246094 136.046875 C 271.214844 136.671875 271.007812 137.265625 270.96875 137.882812 C 270.804688 140.28125 273.316406 142.765625 276.664062 142.386719 C 277.171875 143.449219 276.980469 144.5625 276.148438 145.273438 Z M 276.148438 145.273438 "/><path style=" stroke:none;fill-rule:nonzero;fill:#545454;fill-opacity:1;" d="M 283.027344 142.914062 C 283.027344 142.921875 283.015625 142.921875 283.015625 142.921875 L 283.015625 142.933594 C 282.976562 142.953125 282.925781 142.984375 282.878906 143.011719 C 282.3125 142.21875 281.714844 141.445312 281.082031 140.699219 C 281.433594 140.503906 282.371094 139.816406 282.917969 139.390625 C 283.542969 140.519531 283.742188 141.910156 283.027344 142.914062 Z M 283.027344 142.914062 "/><path style=" stroke:none;fill-rule:nonzero;fill:#545454;fill-opacity:1;" d="M 298.902344 107.769531 C 291.414062 107.769531 285.347656 101.707031 285.347656 94.21875 C 285.347656 86.726562 291.414062 80.652344 298.902344 80.652344 C 299.09375 80.652344 299.289062 80.652344 299.480469 80.671875 C 299.238281 80.917969 298.964844 81.140625 298.730469 81.292969 C 297.304688 82.199219 295.746094 82.78125 294.382812 83.816406 C 292.828125 84.996094 291.453125 86.421875 290.34375 88.039062 C 289.925781 88.652344 289.53125 89.402344 289.785156 90.09375 C 290.050781 90.816406 290.914062 91.132812 291.675781 91.09375 C 292.441406 91.042969 293.164062 90.726562 293.90625 90.5625 C 294.648438 90.402344 295.511719 90.421875 296.074219 90.949219 C 296.898438 91.722656 296.582031 93.128906 295.929688 94.054688 C 295.28125 94.980469 294.34375 95.742188 293.964844 96.8125 C 293.710938 97.515625 293.9375 98.550781 294.6875 98.613281 C 295.542969 98.683594 296.207031 97.382812 296.988281 97.726562 C 297.457031 97.929688 297.519531 98.59375 297.34375 99.070312 C 297.160156 99.550781 296.824219 99.976562 296.753906 100.484375 C 296.632812 101.371094 297.394531 102.195312 298.261719 102.429688 C 299.125 102.664062 300.042969 102.449219 300.886719 102.152344 C 304.558594 100.902344 307.753906 98.277344 309.6875 94.910156 C 310.382812 93.722656 310.945312 92.464844 312.304688 92.101562 C 313.566406 100.679688 306.972656 107.769531 298.902344 107.769531 Z M 298.902344 107.769531 "/><path style=" stroke:none;fill-rule:nonzero;fill:#545454;fill-opacity:1;" d="M 281.332031 70.785156 C 280.53125 75.652344 276.3125 79.355469 271.222656 79.355469 C 265.5625 79.355469 260.972656 74.769531 260.972656 69.109375 C 260.972656 62.773438 266.664062 57.914062 272.996094 59.003906 C 272.210938 59.664062 270.03125 60.113281 267.335938 62.925781 C 266.777344 63.511719 264.164062 66.261719 266.273438 66.65625 C 266.832031 66.765625 267.492188 66.339844 267.921875 66.710938 C 268.265625 67.007812 268.140625 67.558594 267.984375 67.980469 C 266.671875 71.617188 266.441406 72.003906 266.535156 72.675781 C 266.605469 73.183594 267.003906 73.6875 267.515625 73.679688 C 268.265625 73.679688 268.777344 72.660156 269.519531 72.804688 C 269.925781 72.882812 270.175781 73.308594 270.265625 73.714844 C 270.355469 74.121094 270.347656 74.542969 270.484375 74.941406 C 270.726562 75.605469 271.394531 76.066406 272.085938 76.210938 C 273.9375 76.621094 278.328125 75.078125 280.800781 71.34375 C 280.945312 71.128906 281.117188 70.894531 281.332031 70.785156 Z M 281.332031 70.785156 "/><path style=" stroke:none;fill-rule:nonzero;fill:#545454;fill-opacity:1;" d="M 200.332031 133.632812 C 200.320312 133.554688 199.410156 133.246094 199.328125 133.214844 C 196.53125 131.976562 193.652344 130.40625 191.210938 128.542969 C 194.523438 128.636719 197.765625 127.980469 199.734375 127.191406 Z M 200.332031 133.632812 "/><path style=" stroke:none;fill-rule:nonzero;fill:#545454;fill-opacity:1;" d="M 191.695312 113.171875 C 191.796875 113.886719 191.984375 114.671875 192.582031 115.082031 C 193.464844 115.683594 194.726562 115.128906 195.523438 114.621094 C 198.21875 112.894531 195.339844 110.042969 194.0625 107.390625 C 193.410156 106.039062 193.058594 104.371094 193.757812 103.0625 C 193.886719 102.824219 194.199219 102.253906 193.667969 102.164062 C 193.417969 102.121094 193.234375 102.375 193.113281 102.59375 C 191.386719 105.734375 191.195312 109.65625 191.695312 113.171875 Z M 191.695312 113.171875 "/><path style=" stroke:none;fill-rule:nonzero;fill:#b4b4b4;fill-opacity:1;" d="M 281.527344 132.488281 C 283.910156 134.226562 285.683594 136.777344 286.480469 139.609375 "/><path style=" stroke:none;fill-rule:nonzero;fill:#545454;fill-opacity:1;" d="M 191.328125 266.179688 L 102.859375 206.679688 L 100.03125 195.40625 C 100.03125 195.40625 155.730469 228.078125 188.9375 263.667969 C 188.878906 263.550781 188.472656 262.777344 187.757812 261.457031 Z M 191.328125 266.179688 "/><path style=" stroke:none;fill-rule:nonzero;fill:#545454;fill-opacity:1;" d="M 281.011719 181.214844 L 280.574219 188.308594 C 255.472656 204.128906 206.761719 262.933594 205.9375 263.929688 C 242.800781 201.578125 281.011719 181.214844 281.011719 181.214844 Z M 281.011719 181.214844 "/><path style=" stroke:none;fill-rule:nonzero;fill:#545454;fill-opacity:1;" d="M 288.890625 190.8125 L 288.425781 201.777344 L 258.679688 233.785156 L 212.320312 269.078125 L 210 266.179688 C 210 266.179688 210 266.179688 210.007812 266.171875 C 210.257812 266.101562 211.015625 264.976562 223.65625 251.679688 C 270.78125 202.113281 283.253906 196.46875 288.890625 190.8125 Z M 288.890625 190.8125 "/><path style=" stroke:none;fill-rule:nonzero;fill:#545454;fill-opacity:1;" d="M 230.929688 224.566406 C 230.695312 224.433594 230.613281 224.136719 230.746094 223.902344 C 241.015625 205.761719 255.375 189.722656 272.269531 177.519531 C 272.488281 177.359375 272.792969 177.410156 272.953125 177.628906 C 273.113281 177.847656 273.0625 178.152344 272.84375 178.3125 C 256.0625 190.433594 241.796875 206.367188 231.597656 224.382812 C 231.460938 224.621094 231.160156 224.699219 230.929688 224.566406 Z M 230.929688 224.566406 "/><path style=" stroke:none;fill-rule:nonzero;fill:#b4b4b4;fill-opacity:1;" d="M 288.890625 190.8125 L 288.929688 189.867188 C 289.21875 190.394531 289.210938 190.503906 288.890625 190.8125 Z M 288.890625 190.8125 "/><path style=" stroke:none;fill-rule:nonzero;fill:#545454;fill-opacity:1;" d="M 160.058594 232.542969 C 150.320312 218.003906 136.332031 207.078125 122.804688 196.507812 C 117.523438 192.382812 111.539062 187.707031 104.652344 185.800781 C 104.394531 185.730469 104.242188 185.460938 104.3125 185.199219 C 104.386719 184.941406 104.648438 184.789062 104.914062 184.859375 C 111.988281 186.816406 118.054688 191.554688 123.40625 195.734375 C 136.996094 206.351562 151.046875 217.332031 160.871094 232 C 161.023438 232.222656 160.960938 232.527344 160.738281 232.675781 C 160.511719 232.828125 160.210938 232.765625 160.058594 232.542969 Z M 160.058594 232.542969 "/><path style=" stroke:none;fill-rule:nonzero;fill:#545454;fill-opacity:1;" d="M 143.191406 208.082031 C 134.757812 197.578125 125.40625 187.683594 115.398438 178.671875 C 115.195312 178.492188 115.179688 178.183594 115.359375 177.984375 C 115.542969 177.78125 115.851562 177.765625 116.050781 177.945312 C 126.101562 186.992188 135.488281 196.925781 143.953125 207.46875 C 144.121094 207.679688 144.089844 207.988281 143.878906 208.15625 C 143.667969 208.324219 143.359375 208.289062 143.191406 208.082031 Z M 143.191406 208.082031 "/><path style=" stroke:none;fill-rule:nonzero;fill:#b4b4b4;fill-opacity:1;" d="M 70.882812 209.84375 L 175.34375 265.402344 "/><path style=" stroke:none;fill-rule:nonzero;fill:#b4b4b4;fill-opacity:1;" d="M 288.746094 85.238281 L 279.246094 75.480469 "/><path style=" stroke:none;fill-rule:nonzero;fill:#545454;fill-opacity:1;" d="M 171.808594 301.554688 L 97.546875 269.765625 C 97.546875 269.765625 71.613281 211.484375 71.613281 211.484375 C 74.4375 212.09375 76.90625 216.929688 78.390625 219.199219 C 80.511719 222.441406 82.742188 225.515625 85.457031 228.300781 C 90.832031 233.816406 97.4375 238.140625 104.679688 240.773438 C 106.792969 241.542969 109.425781 242.832031 109.195312 245.070312 C 109.015625 246.816406 107.121094 247.796875 105.445312 248.316406 C 103.769531 248.835938 101.835938 249.390625 101.101562 250.984375 C 100.472656 252.347656 101.027344 254.023438 102.054688 255.125 C 103.078125 256.226562 104.484375 256.875 105.851562 257.496094 C 112.210938 260.386719 118.570312 263.277344 124.929688 266.171875 C 126.589844 266.925781 128.464844 267.945312 128.769531 269.742188 C 129.058594 271.421875 127.722656 273.039062 126.136719 273.664062 C 124.546875 274.285156 122.78125 274.15625 121.078125 274.019531 C 122.320312 274.558594 160.710938 291.21875 161.546875 291.582031 C 165.308594 293.214844 167.480469 295.878906 170.089844 299.0625 C 170.726562 299.835938 171.351562 300.660156 171.808594 301.554688 Z M 171.808594 301.554688 "/><path style=" stroke:none;fill-rule:nonzero;fill:#545454;fill-opacity:1;" d="M 314.527344 211.890625 L 266.105469 260.316406 L 194.902344 305.511719 C 194.882812 305.492188 194.863281 305.472656 194.851562 305.453125 L 199.320312 296.164062 C 202.828125 295.28125 204.136719 295.640625 211.925781 290.546875 C 212.964844 289.867188 213.964844 288.976562 215.066406 288.453125 C 216.210938 287.902344 217.421875 287.765625 218.492188 286.996094 C 219.703125 286.128906 220.609375 284.667969 220.390625 283.191406 C 220.152344 281.5625 217.878906 279.21875 223.429688 276.664062 C 230.988281 273.191406 238.542969 269.714844 246.097656 266.238281 C 249.972656 264.457031 253.953125 262.601562 256.890625 259.511719 C 256.046875 258.632812 254.578125 258.816406 253.472656 259.328125 C 252.367188 259.84375 251.347656 260.625 250.140625 260.785156 C 248.929688 260.945312 247.460938 260.074219 247.632812 258.867188 C 247.757812 257.96875 248.671875 257.433594 249.484375 257.023438 C 272.285156 245.539062 293.03125 228.835938 310.171875 209.628906 C 310.996094 208.707031 312.078125 207.714844 313.226562 207.585938 Z M 314.527344 211.890625 "/><path style=" stroke:none;fill-rule:nonzero;fill:#b4b4b4;fill-opacity:1;" d="M 314.53125 211.886719 L 220.308594 269.078125 "/><path style=" stroke:none;fill-rule:nonzero;fill:#b4b4b4;fill-opacity:1;" d="M 195.050781 214.691406 C 195.050781 214.691406 195.042969 214.640625 195.03125 214.542969 C 195.042969 214.589844 195.042969 214.640625 195.050781 214.691406 Z M 195.050781 214.691406 "/><path style=" stroke:none;fill-rule:nonzero;fill:#b4b4b4;fill-opacity:1;" d="M 195.046875 214.6875 L 200.625 261.980469 "/><path style=" stroke:none;fill-rule:nonzero;fill:#b4b4b4;fill-opacity:1;" d="M 188.566406 215.902344 L 191.578125 263.691406 "/><path style=" stroke:none;fill-rule:nonzero;fill:#909092;fill-opacity:1;" d="M 196.273438 111.992188 C 196.453125 113.179688 195.378906 114.441406 194.171875 114.441406 C 193.898438 114.441406 193.683594 114.664062 193.683594 114.933594 C 193.683594 115.203125 193.902344 115.421875 194.171875 115.421875 C 195.976562 115.417969 197.507812 113.625 197.238281 111.847656 C 197.011719 110.351562 195.800781 109.359375 195.023438 108.269531 C 194.195312 107.101562 193.359375 104.714844 194.011719 103.449219 C 195.203125 101.144531 199.34375 100.648438 201.679688 100.871094 C 201.925781 100.898438 202.1875 100.703125 202.214844 100.433594 C 202.238281 100.164062 202.042969 99.925781 201.773438 99.898438 C 199.085938 99.636719 194.566406 100.25 193.144531 103 C 192.261719 104.699219 193.269531 107.488281 194.226562 108.835938 C 194.980469 109.898438 196.097656 110.828125 196.273438 111.992188 Z M 196.273438 111.992188 "/><path style=" stroke:none;fill-rule:nonzero;fill:#909092;fill-opacity:1;" d="M 188.691406 108.695312 C 188.621094 107.84375 188.199219 107.183594 187.746094 107.21875 C 187.289062 107.257812 186.980469 107.976562 187.050781 108.832031 C 187.117188 109.683594 187.542969 110.34375 187.996094 110.304688 C 188.449219 110.269531 188.761719 109.546875 188.691406 108.695312 Z M 188.691406 108.695312 "/><path style=" stroke:none;fill-rule:nonzero;fill:#909092;fill-opacity:1;" d="M 197.621094 106.414062 C 197.167969 106.449219 196.855469 107.171875 196.925781 108.023438 C 196.996094 108.875 197.417969 109.535156 197.871094 109.5 C 198.324219 109.460938 198.636719 108.742188 198.566406 107.890625 C 198.496094 107.035156 198.074219 106.375 197.621094 106.414062 Z M 197.621094 106.414062 "/><path style=" stroke:none;fill-rule:nonzero;fill:#909092;fill-opacity:1;" d="M 187.839844 117.867188 C 187.691406 118.09375 187.757812 118.398438 187.984375 118.542969 C 190.71875 120.304688 194.402344 120.324219 197.15625 118.578125 C 197.382812 118.433594 197.449219 118.128906 197.304688 117.902344 C 197.160156 117.675781 196.859375 117.605469 196.632812 117.75 C 194.234375 119.273438 190.898438 119.257812 188.515625 117.722656 C 188.289062 117.574219 187.988281 117.640625 187.839844 117.867188 Z M 187.839844 117.867188 "/><path style=" stroke:none;fill-rule:nonzero;fill:#909092;fill-opacity:1;" d="M 193.769531 120.90625 C 193.015625 121.765625 191.699219 121.90625 190.78125 121.171875 C 190.570312 121 190.261719 121.035156 190.09375 121.246094 C 189.925781 121.457031 189.960938 121.765625 190.171875 121.933594 C 191.5 122.996094 193.410156 122.804688 194.507812 121.550781 C 194.683594 121.347656 194.664062 121.039062 194.460938 120.859375 C 194.257812 120.683594 193.949219 120.703125 193.769531 120.90625 Z M 193.769531 120.90625 "/><path style=" stroke:none;fill-rule:nonzero;fill:#909092;fill-opacity:1;" d="M 188.503906 103.847656 C 188.761719 103.878906 189.015625 103.695312 189.054688 103.425781 C 189.085938 103.15625 188.898438 102.910156 188.632812 102.878906 C 185.253906 102.433594 181.699219 103.503906 179.125 105.742188 C 178.921875 105.921875 178.898438 106.230469 179.074219 106.433594 C 179.253906 106.636719 179.5625 106.65625 179.765625 106.480469 C 182.132812 104.425781 185.398438 103.441406 188.503906 103.847656 Z M 188.503906 103.847656 "/><path style=" stroke:none;fill-rule:nonzero;fill:#909092;fill-opacity:1;" d="M 315.003906 212.007812 C 315.023438 211.929688 315.015625 211.847656 314.996094 211.769531 C 314.941406 211.546875 313.410156 206.515625 313.296875 206.152344 C 313.203125 205.835938 312.835938 205.714844 312.570312 205.878906 L 292.519531 218.40625 L 296.265625 195.40625 C 296.265625 195.40625 232.640625 246.613281 212.972656 267.683594 C 212.617188 267.039062 211.828125 266.4375 211.058594 265.839844 C 211.488281 265.386719 214.429688 262.089844 224.007812 252.015625 C 270.882812 202.722656 283.773438 196.648438 289.230469 191.164062 C 289.230469 191.164062 289.230469 191.164062 289.230469 191.160156 C 289.230469 191.160156 289.234375 191.160156 289.234375 191.160156 C 289.234375 191.160156 289.234375 191.15625 289.238281 191.15625 C 289.769531 190.636719 289.707031 190.265625 289.363281 189.636719 C 289.074219 189.125 287.269531 186.023438 286.714844 185.066406 C 286.59375 184.859375 286.339844 184.769531 286.113281 184.855469 C 267.003906 192.261719 222.917969 243.113281 209.617188 258.792969 C 229.289062 226.859375 250.820312 203.894531 269.390625 189.691406 C 276.679688 184.097656 281.195312 181.667969 281.242188 181.644531 C 281.410156 181.554688 281.511719 181.371094 281.5 181.175781 C 281.234375 177.65625 279.546875 174.144531 276.5 170.730469 C 278.480469 164.566406 279.703125 160.066406 279.714844 160.023438 C 279.785156 159.765625 279.636719 159.5 279.378906 159.425781 L 276.578125 158.609375 C 279.417969 153.753906 285.226562 151.96875 290.324219 149.949219 C 292.046875 149.257812 293.835938 148.46875 295.058594 147.023438 C 297.351562 144.34375 298.269531 138.542969 296.878906 135.53125 C 295.695312 132.964844 293.464844 131.316406 291.308594 129.71875 L 291.15625 129.921875 C 291.160156 129.910156 291.167969 129.898438 291.167969 129.890625 C 291.167969 129.84375 291.167969 129.792969 291.171875 129.746094 L 291.210938 129.648438 C 291.199219 129.640625 291.1875 129.632812 291.175781 129.621094 C 291.320312 125.179688 289.644531 120.828125 286.648438 117.640625 L 292.304688 106.605469 C 302.28125 111.9375 314.515625 103.773438 312.785156 92.023438 C 310.988281 80.535156 296.769531 76.113281 288.746094 84.539062 L 279.894531 75.445312 C 284.980469 68.472656 280.152344 58.363281 271.222656 58.363281 C 265.300781 58.363281 260.484375 63.183594 260.484375 69.109375 C 260.484375 75.027344 265.300781 79.84375 271.222656 79.84375 C 274.414062 79.84375 277.300781 78.457031 279.277344 76.214844 L 288.085938 85.261719 C 282.714844 91.746094 284.1875 101.535156 291.464844 106.105469 L 285.921875 116.90625 C 282.925781 114.09375 278.847656 112.382812 274.453125 112.382812 C 274.449219 112.382812 274.449219 112.382812 274.449219 112.382812 C 265.800781 112.382812 258.660156 118.980469 257.800781 127.410156 C 256.847656 136.792969 263.816406 145.035156 273.074219 145.792969 C 268.246094 146.636719 264.890625 150.8125 264.550781 155.105469 L 264.453125 155.078125 C 264.234375 155.011719 263.996094 155.113281 263.886719 155.316406 L 252.40625 176.566406 C 252.109375 176.816406 251.820312 177.070312 251.527344 177.328125 C 246.46875 169.839844 229.8125 145.613281 229.46875 145.011719 C 227.667969 141.875 224.363281 140.601562 221.234375 139.421875 C 218.636719 138.445312 216.714844 137.558594 212.828125 136.480469 C 212.160156 134.289062 205.402344 128.800781 204 127.683594 C 203.757812 127.488281 203.402344 127.566406 203.261719 127.839844 C 202.566406 129.1875 201.902344 130.609375 201.257812 132.136719 C 200.894531 129.316406 200.910156 128.917969 200.75 127.289062 C 206.402344 124.761719 210.074219 119.046875 210.648438 112.03125 C 212.164062 111.59375 213.527344 110.96875 214.6875 110.148438 C 217.242188 108.351562 218.875 105.503906 218.941406 102.714844 C 218.988281 100.40625 217.894531 98.191406 216.207031 96.84375 C 216.355469 96.878906 216.5 96.914062 216.648438 96.941406 C 216.34375 89.84375 215.914062 82.097656 210.988281 76.613281 C 208.589844 73.9375 205.121094 72.101562 201.53125 72.179688 C 197.9375 72.253906 194.34375 74.46875 193.128906 77.851562 C 187.925781 73.195312 179.660156 70.332031 173.1875 72.476562 C 170.210938 73.464844 167.554688 75.632812 166.398438 78.546875 C 165.242188 81.460938 165.804688 85.09375 168.097656 87.234375 C 161.234375 89.429688 157.699219 97.144531 160.628906 103.804688 C 161.132812 104.949219 161.859375 106.042969 163 106.53125 C 161.332031 108.335938 160.695312 111.183594 161.539062 113.699219 C 162.429688 116.332031 164.835938 118.566406 167.816406 119.527344 C 169.808594 120.167969 171.832031 120.253906 173.878906 120 C 176.226562 123.503906 179.613281 126.132812 183.726562 127.636719 L 183.9375 129.75 C 182.625 129.179688 182.109375 131.097656 181.347656 132.21875 L 178.867188 135.890625 C 176.140625 136.59375 173.453125 137.488281 170.882812 138.550781 C 166.207031 140.5 164.1875 141.742188 160.433594 146.335938 C 153.085938 155.269531 152.707031 157.777344 148.839844 163.101562 C 145.351562 167.921875 141.863281 172.742188 138.367188 177.558594 L 126.792969 155.566406 C 126.671875 155.339844 126.394531 155.246094 126.164062 155.347656 L 125.101562 155.816406 C 125.171875 153.742188 124.808594 151.632812 124.425781 149.800781 C 123.953125 147.527344 122.996094 145.617188 121.667969 144.277344 C 120.621094 143.203125 119.296875 142.460938 117.972656 141.835938 C 124.445312 140.582031 124.984375 140.542969 125.84375 140.261719 C 131.304688 138.617188 134.738281 133.085938 133.636719 127.371094 C 132.472656 121.265625 126.570312 117.265625 120.464844 118.4375 L 101.988281 121.980469 C 101.769531 121.761719 101.632812 121.550781 101.316406 121.609375 C 75.097656 126.667969 76.617188 126.296875 75.453125 126.636719 C 69.683594 128.378906 66.191406 134.164062 67.332031 140.085938 C 68.554688 146.46875 74.699219 150.628906 81.074219 149.40625 L 90.480469 147.605469 C 93.484375 151.460938 98.144531 154.027344 103.023438 154.476562 C 105.882812 154.722656 109.160156 154.308594 111.414062 156.109375 C 112.820312 157.234375 112.804688 159.058594 113.355469 160.976562 L 111.246094 161.898438 C 111.035156 161.992188 110.914062 162.222656 110.964844 162.449219 C 111.65625 165.679688 112.335938 168.558594 113.042969 171.246094 C 110.964844 172.871094 100.828125 181.460938 99.542969 195.359375 C 99.527344 195.550781 99.621094 195.730469 99.78125 195.828125 C 100.328125 196.148438 153.460938 227.492188 186.453125 261.765625 C 172.675781 251.152344 105.53125 200.09375 87.574219 198.910156 L 96.640625 218.578125 L 72.308594 205.859375 C 72.039062 205.722656 71.714844 205.851562 71.617188 206.136719 L 70.417969 209.691406 C 70.382812 209.789062 70.40625 209.984375 70.433594 210.046875 C 98.332031 272.605469 97.019531 270.070312 97.355469 270.214844 C 97.453125 270.253906 169.203125 300.96875 174.1875 303.101562 C 174.601562 303.980469 176.613281 307.785156 181.058594 309.179688 C 185.792969 310.667969 190.859375 308.660156 195.054688 305.996094 C 211.988281 295.246094 257.351562 266.449219 266.367188 260.726562 C 266.394531 260.707031 266.421875 260.6875 266.449219 260.660156 C 316.949219 210.148438 314.933594 212.242188 314.996094 212.019531 C 315 212.015625 315 212.011719 315.003906 212.007812 Z M 271.222656 78.867188 C 265.839844 78.867188 261.464844 74.488281 261.464844 69.109375 C 261.464844 63.09375 266.875 58.449219 272.910156 59.488281 C 277.585938 60.308594 280.980469 64.355469 280.980469 69.109375 C 280.980469 74.476562 276.652344 78.867188 271.222656 78.867188 Z M 285.835938 94.21875 C 285.835938 87.09375 291.59375 81.140625 298.941406 81.140625 C 305.328125 81.140625 310.828125 85.855469 311.820312 92.171875 C 313.042969 100.414062 306.6875 107.28125 298.902344 107.28125 C 291.695312 107.28125 285.835938 101.421875 285.835938 94.21875 Z M 185.335938 134.566406 C 185.082031 130.875 185.394531 134.730469 184.746094 127.992188 C 189.796875 129.574219 195.804688 129.25 199.804688 127.691406 C 200.285156 133.054688 200.355469 132.152344 200.480469 134.042969 C 199.660156 136.121094 198.714844 139.0625 198.636719 139.304688 C 196.984375 140.625 194.554688 141.09375 192.441406 141.265625 C 190.011719 141.464844 187.535156 141.289062 186.320312 139.191406 L 186.320312 139.144531 C 186.25 137.371094 185.777344 136.492188 185.335938 134.566406 Z M 192.550781 228.460938 C 193.730469 228.351562 194.945312 228.152344 196.136719 228.097656 L 200.039062 261.203125 C 197.34375 260.835938 194.78125 260.921875 191.933594 261.570312 L 189.859375 228.617188 C 190.730469 228.480469 191.691406 228.539062 192.550781 228.460938 Z M 286.078125 185.921875 C 286.136719 186.019531 288.382812 189.882812 288.4375 189.984375 L 288.410156 190.597656 C 283.914062 194.886719 274.898438 200.21875 251.414062 222.824219 C 232.246094 241.277344 211.480469 263.980469 210.269531 265.25 C 209.253906 264.53125 208.179688 263.890625 207.0625 263.34375 C 220.632812 247.101562 266.464844 193.988281 286.078125 185.921875 Z M 268.792969 188.914062 C 249.199219 203.902344 226.484375 228.445312 206.011719 262.851562 C 204.511719 262.207031 202.9375 261.734375 201.332031 261.417969 C 202.824219 257.019531 211.386719 232.765625 226.308594 209.296875 C 237.085938 192.324219 251.65625 174.984375 269.714844 166.132812 C 271.574219 167.347656 273.855469 169.261719 275.585938 171.171875 C 276.039062 171.8125 279.957031 175.589844 280.496094 180.941406 C 279.386719 181.5625 275.117188 184.0625 268.792969 188.914062 Z M 228.078125 177.984375 C 229.566406 180.890625 232.753906 186.808594 236.867188 192.804688 C 233.332031 197.191406 229.851562 202.046875 226.484375 207.242188 Z M 287.804688 131.085938 C 284.5625 128.285156 283.367188 126.605469 281.648438 126.992188 C 280.367188 127.285156 279.699219 128.777344 279.9375 130.09375 C 279.03125 129.648438 277.722656 129.667969 277 130.585938 C 276.277344 131.523438 276.625 132.761719 276.894531 133.410156 C 277.886719 135.851562 279.625 136.652344 281.382812 138.300781 C 281.558594 138.464844 281.738281 138.625 281.898438 138.804688 C 282.691406 139.675781 283.242188 141.105469 282.867188 142.167969 C 281.484375 140.292969 279.601562 138.210938 277.996094 136.707031 C 277.441406 136.195312 276.882812 135.707031 276.1875 135.417969 C 275.335938 135.054688 274.425781 135.089844 273.757812 135.511719 C 272.535156 136.269531 272.453125 137.972656 273.078125 139.117188 C 274.007812 140.832031 276.128906 141.441406 276.429688 143.242188 C 276.429688 143.246094 276.429688 143.246094 276.429688 143.25 C 276.523438 143.832031 276.363281 144.367188 275.90625 144.8125 C 266.851562 145.757812 258.691406 138.46875 258.691406 129.117188 C 258.691406 126.402344 259.382812 123.84375 260.597656 121.613281 C 266.96875 109.902344 284.175781 110.867188 289.121094 123.34375 C 289.125 123.347656 289.128906 123.351562 289.132812 123.355469 C 289.820312 125.125 290.199219 127.046875 290.207031 129.054688 C 288.800781 128.46875 287.546875 129.441406 287.804688 131.085938 Z M 272.851562 146.824219 C 273.730469 146.644531 274.65625 146.578125 275.558594 146.210938 C 277.300781 145.453125 277.851562 143.746094 277.109375 142.183594 C 276.367188 140.574219 274.652344 139.972656 273.9375 138.648438 C 273.53125 137.90625 273.570312 136.777344 274.273438 136.339844 C 274.628906 136.117188 275.199219 136.058594 275.808594 136.316406 C 277.132812 136.875 279.980469 140.136719 280.820312 141.152344 C 282.101562 142.671875 282.351562 143.191406 282.5625 143.375 C 282.789062 143.632812 283.175781 143.644531 283.441406 143.171875 C 283.859375 142.574219 284.066406 141.699219 283.910156 140.753906 C 283.410156 137.746094 280.503906 136.679688 278.867188 134.78125 C 278.183594 133.996094 277.25 132.371094 277.644531 131.414062 C 277.933594 130.703125 278.90625 130.644531 279.5625 131 C 280.203125 131.332031 280.644531 131.9375 281.046875 132.46875 C 281.042969 132.625 281.101562 132.785156 281.238281 132.886719 C 283.542969 134.5625 285.238281 137 286.011719 139.742188 C 286.074219 139.957031 286.269531 140.097656 286.480469 140.097656 C 286.804688 140.097656 287.039062 139.789062 286.953125 139.476562 C 286.132812 136.5625 284.339844 133.972656 281.910156 132.167969 C 281.910156 132.074219 281.890625 131.980469 281.835938 131.894531 C 281.417969 131.261719 280.960938 130.519531 280.871094 129.726562 C 280.789062 128.996094 281.167969 128.105469 281.863281 127.945312 C 282.546875 127.792969 283.3125 128.367188 283.960938 128.957031 L 288.277344 132.824219 C 288.296875 132.921875 288.339844 133.019531 288.425781 133.089844 C 290.015625 134.484375 290.945312 136.578125 290.90625 138.691406 C 290.902344 138.960938 291.117188 139.183594 291.386719 139.191406 C 291.390625 139.191406 291.394531 139.191406 291.394531 139.191406 C 291.660156 139.191406 291.878906 138.976562 291.882812 138.710938 C 291.925781 136.441406 290.976562 134.203125 289.347656 132.628906 C 289.332031 132.519531 289.285156 132.414062 289.199219 132.335938 L 289.195312 132.335938 C 289.007812 132.140625 288.773438 131.128906 288.746094 130.746094 C 288.71875 130.320312 288.90625 129.882812 289.347656 129.859375 C 289.929688 129.828125 290.824219 130.578125 290.726562 130.503906 C 292.785156 132.027344 294.914062 133.601562 295.992188 135.941406 C 297.226562 138.621094 296.367188 143.988281 294.3125 146.386719 C 291.121094 150.160156 279.953125 150.523438 275.609375 158.328125 L 265.507812 155.382812 C 265.726562 151.347656 268.875 147.636719 272.851562 146.824219 Z M 264.558594 156.128906 L 264.695312 156.167969 C 265.023438 156.453125 276.859375 159.71875 278.644531 160.230469 C 278.296875 161.476562 277.257812 165.148438 275.738281 169.898438 C 273.878906 167.964844 271.601562 166.148438 270 165.15625 C 269.855469 165.066406 269.632812 165.085938 269.53125 165.132812 C 264.167969 167.734375 258.972656 171.199219 254.429688 174.875 Z M 220.890625 140.335938 C 223.675781 141.386719 227 142.671875 228.621094 145.5 C 228.871094 145.941406 248.628906 174.777344 250.789062 177.976562 C 246.082031 182.171875 241.503906 187.101562 237.503906 192.007812 C 232.75 185.039062 229.269531 178.21875 228.296875 176.253906 C 228.269531 176.195312 228.226562 176.144531 228.179688 176.101562 L 228.808594 164.566406 C 228.84375 163.941406 227.871094 163.835938 227.832031 164.511719 L 225.417969 208.878906 C 211.597656 230.644531 203.222656 253.058594 200.859375 259.796875 C 200.847656 259.699219 195.453125 213.933594 195.519531 214.488281 C 194.523438 205.433594 211.183594 173.542969 211.351562 173.222656 C 211.457031 173.027344 211.414062 172.789062 211.253906 172.636719 L 205.238281 167.027344 L 214.433594 160.378906 C 214.570312 160.28125 214.648438 160.117188 214.636719 159.949219 C 214.621094 159.753906 213.316406 142.050781 212.960938 137.542969 C 216.679688 138.601562 218.246094 139.339844 220.890625 140.335938 Z M 203.859375 128.824219 C 207.300781 131.613281 211.828125 135.714844 211.921875 136.78125 C 211.921875 137.246094 211.671875 133.027344 213.640625 159.746094 L 204.183594 166.585938 C 203.9375 166.761719 203.910156 167.125 204.136719 167.339844 L 210.316406 173.097656 C 208.695312 176.214844 197.488281 198.003906 194.992188 209.753906 C 192.636719 185.617188 192.867188 150.644531 203.859375 128.824219 Z M 217.964844 102.691406 C 217.902344 105.175781 216.433594 107.726562 214.125 109.347656 C 213.136719 110.046875 211.984375 110.589844 210.707031 110.992188 C 210.753906 109.726562 210.75 108.398438 210.460938 106.402344 C 211.632812 106.886719 212.910156 106.070312 212.371094 105.453125 C 212.195312 105.25 211.886719 105.226562 211.683594 105.40625 C 211.398438 105.65625 210.855469 105.613281 210.546875 105.316406 C 209.953125 104.742188 210.046875 103.535156 211.25 102.707031 C 211.691406 102.398438 212.210938 102.199219 212.71875 102.027344 C 212.757812 102.078125 212.804688 102.121094 212.839844 102.171875 C 213.398438 103.019531 213.574219 104.109375 213.308594 105.085938 C 213.226562 105.398438 213.460938 105.703125 213.78125 105.703125 C 213.996094 105.703125 214.195312 105.558594 214.253906 105.339844 C 214.964844 102.703125 213.203125 100.011719 210.488281 99.621094 C 210.222656 99.585938 209.972656 99.769531 209.933594 100.035156 C 209.894531 100.304688 210.082031 100.550781 210.347656 100.589844 C 210.929688 100.675781 211.472656 100.917969 211.945312 101.265625 C 211.023438 101.621094 210.265625 102.070312 209.714844 102.890625 C 209.25 101.25 208.707031 99.867188 208 98.425781 C 208 98.417969 208.003906 98.410156 208.007812 98.40625 C 209.640625 96.8125 211.960938 96.121094 213.894531 96.691406 C 216.273438 97.394531 218.019531 99.976562 217.964844 102.691406 Z M 168.117188 118.597656 C 165.421875 117.726562 163.257812 115.730469 162.46875 113.386719 C 161.648438 110.949219 162.421875 108.160156 164.253906 106.695312 C 164.800781 106.585938 165.238281 106.238281 165.714844 105.894531 C 167.226562 105.375 169.039062 105.507812 170.621094 106.296875 C 170.425781 107.96875 170.449219 109.667969 170.660156 111.339844 C 169.882812 110.5625 168.859375 110.304688 167.785156 110.230469 C 168.132812 109.761719 168.578125 109.367188 169.105469 109.113281 C 169.351562 108.996094 169.453125 108.703125 169.335938 108.460938 C 169.21875 108.21875 168.925781 108.113281 168.683594 108.230469 C 166.21875 109.410156 165.328125 112.503906 166.796875 114.8125 C 166.890625 114.957031 167.046875 115.039062 167.210938 115.039062 C 167.589844 115.039062 167.832031 114.613281 167.621094 114.289062 C 167.078125 113.433594 166.921875 112.339844 167.199219 111.367188 C 167.21875 111.304688 167.25 111.25 167.273438 111.191406 C 167.808594 111.203125 168.363281 111.242188 168.878906 111.402344 C 170.28125 111.835938 170.71875 112.957031 170.324219 113.683594 C 170.121094 114.058594 169.613281 114.261719 169.269531 114.105469 C 168.671875 113.847656 168.285156 114.742188 168.875 115.003906 C 169.085938 115.09375 169.308594 115.136719 169.535156 115.136719 C 170.171875 115.136719 170.84375 114.796875 171.203125 114.101562 C 171.667969 115.84375 172.367188 117.523438 173.28125 119.070312 C 171.417969 119.246094 169.675781 119.101562 168.117188 118.597656 Z M 174.375 119 C 171.929688 115.113281 170.996094 110.273438 171.6875 105.71875 C 172.09375 105.757812 172.496094 105.765625 172.890625 105.695312 C 174.703125 105.375 176.101562 103.886719 176.988281 102.273438 C 177.875 100.660156 178.386719 98.863281 179.25 97.238281 C 180.640625 94.613281 182.953125 92.570312 185.59375 91.402344 C 186.75 90.894531 188.511719 90.152344 189.800781 90.390625 C 190.203125 90.464844 192.621094 91.699219 192.378906 92.109375 C 194.148438 89.109375 199.089844 90.144531 201.890625 92.101562 C 203.859375 93.707031 205.546875 95.8125 206.871094 98.355469 C 207.152344 99.050781 207.371094 99.761719 207.4375 100.03125 C 207.484375 100.207031 207.628906 100.410156 207.660156 100.558594 C 207.613281 100.339844 207.601562 100.121094 207.609375 99.898438 C 212.648438 111.496094 208.542969 124.292969 198.367188 127.140625 C 189.488281 129.738281 179.371094 126.941406 174.375 119 Z M 182.15625 132.769531 C 182.617188 132.09375 183.324219 130.527344 183.53125 130.632812 C 183.820312 130.707031 183.964844 132.8125 184.367188 134.714844 C 184.957031 138.085938 186.460938 137.089844 184.046875 152.300781 C 183.480469 155.875 182.894531 159.566406 182.910156 163.179688 C 182.945312 174.914062 183.683594 188.269531 184.621094 199.949219 C 184.734375 201.410156 186.042969 206.722656 186.628906 209.203125 L 171.300781 167.511719 L 176.304688 160.007812 C 176.414062 159.839844 176.410156 159.621094 176.296875 159.457031 L 170.085938 150.503906 C 170.433594 149.921875 171.539062 148.46875 171.625 148.339844 C 173.246094 145.960938 182.089844 132.867188 182.15625 132.769531 Z M 110.695312 143.484375 C 110.207031 143.523438 109.714844 143.527344 109.222656 143.515625 L 110.378906 143.292969 C 110.488281 143.355469 110.582031 143.421875 110.695312 143.484375 Z M 80.890625 148.445312 C 75.050781 149.570312 69.414062 145.753906 68.292969 139.902344 C 67.246094 134.472656 70.445312 129.167969 75.730469 127.574219 C 76.789062 127.265625 75.148438 127.648438 101.253906 122.617188 C 105.011719 126.253906 107.078125 132.253906 106.414062 137.640625 C 106.179688 139.402344 105.679688 141.109375 104.921875 142.71875 C 102.476562 141.867188 102.179688 141.183594 101.03125 140.644531 C 94.328125 137.53125 93.3125 135.496094 91.652344 136.101562 C 90.652344 136.449219 90.042969 137.828125 90.855469 139.324219 C 89.339844 139.496094 88.679688 141.109375 89.351562 142.585938 C 89.589844 143.121094 89.945312 143.554688 90.339844 143.964844 C 89.828125 144.328125 89.484375 144.914062 89.445312 145.550781 C 89.429688 145.945312 89.433594 146.410156 89.621094 146.773438 Z M 112.027344 155.34375 C 109.476562 153.3125 105.976562 153.75 103.113281 153.503906 C 98.402344 153.070312 93.898438 150.554688 91.109375 146.855469 C 90.804688 146.234375 90.367188 146.890625 90.425781 145.601562 C 90.449219 145.175781 90.773438 144.777344 91.179688 144.636719 C 93.625 147.257812 96.703125 149.269531 100.085938 150.449219 C 100.699219 150.664062 101.015625 149.734375 100.410156 149.523438 C 97.132812 148.382812 94.15625 146.429688 91.804688 143.875 C 91.714844 143.78125 91.597656 143.730469 91.476562 143.722656 C 90.976562 143.230469 90.503906 142.769531 90.242188 142.183594 C 89.945312 141.53125 89.996094 140.675781 90.65625 140.386719 C 90.695312 140.371094 90.738281 140.367188 90.777344 140.355469 C 90.960938 140.300781 91.070312 140.289062 91.261719 140.320312 C 91.300781 140.324219 91.339844 140.324219 91.375 140.335938 C 91.484375 140.367188 91.589844 140.410156 91.675781 140.480469 C 91.683594 140.488281 91.6875 140.496094 91.695312 140.503906 C 94.4375 142.914062 97.71875 144.789062 101.191406 145.921875 C 101.808594 146.125 102.105469 145.191406 101.492188 144.992188 C 98.15625 143.902344 94.996094 142.101562 92.359375 139.785156 C 91.917969 139.21875 91.570312 138.742188 91.46875 138.203125 C 91.390625 137.746094 91.558594 137.167969 91.976562 137.019531 C 92.363281 136.882812 92.828125 137.109375 93.414062 137.488281 C 98.769531 140.929688 100.195312 141.152344 101.570312 142.121094 C 104.542969 144.21875 108.75 144.9375 112.40625 144.246094 C 112.867188 144.160156 112.953125 143.53125 112.53125 143.328125 C 111.460938 142.804688 110.550781 142.355469 109.800781 141.683594 C 109.066406 141.035156 108.390625 140.0625 108.527344 139.5625 C 108.679688 139.03125 109.78125 139.316406 110.285156 139.539062 L 116.027344 142.027344 C 117.570312 142.726562 119.527344 143.484375 120.972656 144.964844 C 122.167969 146.171875 123.035156 147.914062 123.46875 150 C 123.871094 151.914062 124.25 154.144531 124.101562 156.257812 L 114.25 160.585938 C 113.789062 158.886719 113.726562 156.710938 112.027344 155.34375 Z M 126.140625 156.425781 L 137.867188 178.710938 C 138.035156 179.03125 138.484375 179.0625 138.695312 178.773438 C 142.347656 173.738281 145.992188 168.707031 149.632812 163.675781 C 153.589844 158.226562 153.90625 155.808594 161.1875 146.953125 C 164.820312 142.515625 166.710938 141.351562 171.257812 139.453125 C 173.445312 138.550781 175.714844 137.777344 178.027344 137.132812 C 172.136719 145.839844 171.054688 147.472656 170.597656 148.089844 C 168.964844 150.285156 168.890625 150.480469 169.132812 150.84375 L 175.304688 159.742188 L 170.347656 167.175781 C 170.261719 167.304688 170.242188 167.46875 170.296875 167.617188 L 188.082031 215.996094 L 190.96875 261.816406 C 190.261719 262.011719 189.558594 262.238281 188.871094 262.5 C 181.789062 249.238281 172.777344 233.890625 164 220.570312 C 163.605469 203.371094 164.859375 184.9375 161.472656 168.03125 C 161.417969 167.765625 161.160156 167.589844 160.894531 167.648438 C 160.632812 167.699219 160.460938 167.957031 160.511719 168.222656 C 161.085938 171.074219 161.515625 173.976562 161.851562 176.90625 C 157.472656 184.835938 152.324219 192.644531 148.042969 198.292969 C 140.527344 188.792969 126.039062 171.976562 113.964844 170.910156 C 113.296875 168.371094 112.65625 165.65625 112.003906 162.632812 C 114.386719 161.59375 121.566406 158.441406 126.140625 156.425781 Z M 162.996094 219.054688 C 158.46875 212.25 153.621094 205.398438 148.660156 199.082031 C 152.410156 194.1875 157.648438 186.394531 162.035156 178.582031 C 163.382812 191.890625 162.761719 205.480469 162.996094 219.054688 Z M 100.546875 195.144531 C 101.96875 181.300781 112.414062 172.945312 113.820312 171.878906 C 137.59375 173.867188 175.371094 239.550781 186.789062 260.699219 C 154.898438 227.742188 104.691406 197.605469 100.546875 195.144531 Z M 97.917969 269.390625 L 72.0625 211.285156 L 71.90625 210.941406 C 179.847656 268.324219 175.109375 265.890625 175.347656 265.890625 C 175.851562 265.890625 176.023438 265.207031 175.574219 264.96875 L 71.476562 209.605469 L 72.363281 206.992188 C 73.660156 207.671875 58.105469 199.539062 184.585938 265.675781 L 174.230469 302.058594 Z M 181.367188 308.25 C 177.347656 306.996094 175.445312 303.457031 175.070312 302.683594 L 185.4375 266.269531 C 185.453125 266.28125 185.464844 266.289062 185.476562 266.300781 C 185.832031 266.878906 186.414062 267.300781 186.996094 267.660156 C 187.566406 268.015625 188.148438 268.34375 188.742188 268.65625 C 197.425781 274.03125 205.707031 272.246094 209.835938 270.722656 C 210.292969 270.574219 210.75 270.417969 211.210938 270.253906 C 209.492188 273.832031 217.433594 257.289062 194.410156 305.25 C 189.417969 308.386719 185.03125 309.398438 181.367188 308.25 Z M 265.796875 259.929688 L 195.976562 304.253906 C 197.691406 300.679688 189.78125 317.152344 212.695312 269.429688 C 212.792969 269.335938 210.929688 270.527344 312.546875 207.046875 C 312.777344 207.800781 314.003906 211.847656 313.949219 211.667969 L 220.054688 268.660156 C 219.824219 268.800781 219.75 269.101562 219.890625 269.332031 C 220.035156 269.566406 220.335938 269.632812 220.5625 269.496094 L 311.320312 214.40625 Z M 265.796875 259.929688 "/></g></svg>