<svg xmlns="http://www.w3.org/2000/svg" xmlns:xlink="http://www.w3.org/1999/xlink" width="500" zoomAndPan="magnify" viewBox="0 0 375 374.999991" height="500" preserveAspectRatio="xMidYMid meet" version="1.2"><g id="046a2069d1"><path style=" stroke:none;fill-rule:nonzero;fill:#ffffff;fill-opacity:1;" d="M 286.273438 117.796875 L 292.332031 105.988281 "/><path style=" stroke:none;fill-rule:nonzero;fill:#dbdbdb;fill-opacity:1;" d="M 276.363281 145.363281 C 276.535156 145.351562 276.703125 145.332031 276.871094 145.3125 C 266.367188 146.546875 258.402344 138.503906 258.402344 129.1875 C 258.402344 119.835938 266.363281 112.082031 276.316406 113.003906 C 275.625 114.382812 274.789062 113.980469 273.800781 114.425781 C 270.03125 116.035156 266.855469 118.894531 264.910156 122.324219 C 264.601562 122.851562 264.324219 123.417969 264.273438 124.023438 C 264.234375 124.636719 264.492188 125.304688 265.027344 125.59375 C 265.605469 125.898438 266.339844 125.703125 266.925781 125.375 C 267.503906 125.054688 268.039062 124.628906 268.683594 124.480469 C 269.339844 124.332031 270.15625 124.609375 270.304688 125.246094 C 270.445312 125.839844 269.996094 126.375 269.609375 126.832031 C 267.335938 129.535156 265.992188 133.011719 265.882812 136.539062 C 266.757812 136.867188 267.632812 136.113281 268.289062 135.449219 C 268.945312 134.773438 269.90625 134.066406 270.730469 134.511719 C 271.269531 134.800781 271.488281 135.507812 271.457031 136.121094 C 271.425781 136.75 271.21875 137.34375 271.179688 137.960938 C 271.019531 140.363281 273.53125 142.851562 276.882812 142.472656 C 277.386719 143.535156 277.199219 144.648438 276.363281 145.363281 Z M 276.363281 145.363281 "/><path style=" stroke:none;fill-rule:nonzero;fill:#dbdbdb;fill-opacity:1;" d="M 283.25 142.996094 C 283.25 143.007812 283.238281 143.007812 283.238281 143.007812 L 283.238281 143.015625 C 283.199219 143.039062 283.148438 143.066406 283.101562 143.097656 C 282.535156 142.300781 281.9375 141.527344 281.300781 140.78125 C 281.65625 140.585938 282.59375 139.898438 283.140625 139.472656 C 283.765625 140.601562 283.964844 141.996094 283.25 142.996094 Z M 283.25 142.996094 "/><path style=" stroke:none;fill-rule:nonzero;fill:#dbdbdb;fill-opacity:1;" d="M 299.140625 107.820312 C 291.644531 107.820312 285.574219 101.75 285.574219 94.253906 C 285.574219 86.757812 291.644531 80.675781 299.140625 80.675781 C 299.335938 80.675781 299.527344 80.675781 299.722656 80.695312 C 299.476562 80.941406 299.203125 81.164062 298.96875 81.316406 C 297.542969 82.222656 295.984375 82.804688 294.617188 83.84375 C 293.0625 85.023438 291.6875 86.449219 290.574219 88.070312 C 290.15625 88.679688 289.761719 89.433594 290.015625 90.128906 C 290.28125 90.851562 291.144531 91.167969 291.910156 91.125 C 292.671875 91.074219 293.398438 90.757812 294.140625 90.597656 C 294.882812 90.433594 295.75 90.453125 296.308594 90.984375 C 297.136719 91.757812 296.820312 93.164062 296.167969 94.089844 C 295.515625 95.015625 294.578125 95.78125 294.203125 96.851562 C 293.945312 97.554688 294.171875 98.59375 294.925781 98.652344 C 295.78125 98.722656 296.441406 97.421875 297.226562 97.765625 C 297.695312 97.972656 297.757812 98.632812 297.582031 99.113281 C 297.398438 99.589844 297.0625 100.019531 296.992188 100.527344 C 296.871094 101.414062 297.632812 102.238281 298.5 102.472656 C 299.367188 102.707031 300.28125 102.492188 301.128906 102.199219 C 304.804688 100.945312 308.003906 98.316406 309.9375 94.945312 C 310.636719 93.757812 311.199219 92.5 312.554688 92.132812 C 313.820312 100.722656 307.222656 107.820312 299.140625 107.820312 Z M 299.140625 107.820312 "/><path style=" stroke:none;fill-rule:nonzero;fill:#dbdbdb;fill-opacity:1;" d="M 281.554688 70.796875 C 280.753906 75.667969 276.53125 79.378906 271.433594 79.378906 C 265.769531 79.378906 261.175781 74.785156 261.175781 69.121094 C 261.175781 62.777344 266.871094 57.914062 273.210938 59.007812 C 272.421875 59.667969 270.242188 60.113281 267.546875 62.929688 C 266.984375 63.515625 264.371094 66.269531 266.480469 66.664062 C 267.039062 66.773438 267.699219 66.351562 268.132812 66.71875 C 268.476562 67.015625 268.347656 67.566406 268.195312 67.992188 C 266.878906 71.632812 266.648438 72.019531 266.742188 72.691406 C 266.816406 73.199219 267.210938 73.703125 267.726562 73.695312 C 268.476562 73.695312 268.988281 72.675781 269.730469 72.820312 C 270.132812 72.898438 270.386719 73.324219 270.476562 73.730469 C 270.566406 74.136719 270.558594 74.558594 270.695312 74.957031 C 270.9375 75.625 271.605469 76.085938 272.300781 76.230469 C 274.152344 76.636719 278.546875 75.09375 281.023438 71.355469 C 281.167969 71.140625 281.339844 70.90625 281.554688 70.796875 Z M 281.554688 70.796875 "/><path style=" stroke:none;fill-rule:nonzero;fill:#dbdbdb;fill-opacity:1;" d="M 200.472656 133.707031 C 200.464844 133.628906 199.550781 133.320312 199.46875 133.292969 C 196.667969 132.046875 193.789062 130.476562 191.34375 128.613281 C 194.660156 128.707031 197.902344 128.050781 199.875 127.261719 Z M 200.472656 133.707031 "/><path style=" stroke:none;fill-rule:nonzero;fill:#dbdbdb;fill-opacity:1;" d="M 191.828125 113.226562 C 191.929688 113.941406 192.117188 114.730469 192.714844 115.136719 C 193.601562 115.742188 194.863281 115.1875 195.660156 114.675781 C 198.359375 112.953125 195.476562 110.097656 194.195312 107.441406 C 193.542969 106.085938 193.195312 104.417969 193.890625 103.109375 C 194.019531 102.867188 194.335938 102.296875 193.800781 102.207031 C 193.554688 102.167969 193.367188 102.421875 193.246094 102.640625 C 191.519531 105.78125 191.328125 109.707031 191.828125 113.226562 Z M 191.828125 113.226562 "/><path style=" stroke:none;fill-rule:nonzero;fill:#ffffff;fill-opacity:1;" d="M 281.75 132.5625 C 284.132812 134.300781 285.910156 136.855469 286.710938 139.691406 "/><path style=" stroke:none;fill-rule:nonzero;fill:#dbdbdb;fill-opacity:1;" d="M 191.460938 266.386719 L 102.902344 206.828125 L 100.070312 195.542969 C 100.070312 195.542969 155.824219 228.25 189.066406 263.875 C 189.007812 263.753906 188.601562 262.980469 187.886719 261.660156 Z M 191.460938 266.386719 "/><path style=" stroke:none;fill-rule:nonzero;fill:#dbdbdb;fill-opacity:1;" d="M 281.234375 181.335938 L 280.796875 188.4375 C 255.671875 204.277344 206.910156 263.140625 206.085938 264.132812 C 242.984375 201.722656 281.234375 181.335938 281.234375 181.335938 Z M 281.234375 181.335938 "/><path style=" stroke:none;fill-rule:nonzero;fill:#dbdbdb;fill-opacity:1;" d="M 289.121094 190.941406 L 288.652344 201.921875 L 258.878906 233.960938 L 212.472656 269.289062 L 210.148438 266.386719 C 210.148438 266.386719 210.148438 266.386719 210.160156 266.378906 C 210.410156 266.308594 211.167969 265.179688 223.820312 251.875 C 270.992188 202.257812 283.476562 196.605469 289.121094 190.941406 Z M 289.121094 190.941406 "/><path style=" stroke:none;fill-rule:nonzero;fill:#dbdbdb;fill-opacity:1;" d="M 231.105469 224.734375 C 230.867188 224.601562 230.785156 224.300781 230.917969 224.066406 C 241.199219 205.910156 255.570312 189.855469 272.484375 177.636719 C 272.703125 177.480469 273.007812 177.527344 273.167969 177.746094 C 273.328125 177.964844 273.277344 178.273438 273.058594 178.429688 C 256.257812 190.566406 241.980469 206.515625 231.769531 224.546875 C 231.632812 224.789062 231.335938 224.863281 231.105469 224.734375 Z M 231.105469 224.734375 "/><path style=" stroke:none;fill-rule:nonzero;fill:#ffffff;fill-opacity:1;" d="M 289.121094 190.941406 L 289.160156 190 C 289.449219 190.527344 289.4375 190.636719 289.121094 190.941406 Z M 289.121094 190.941406 "/><path style=" stroke:none;fill-rule:nonzero;fill:#dbdbdb;fill-opacity:1;" d="M 160.160156 232.714844 C 150.414062 218.164062 136.410156 207.226562 122.867188 196.644531 C 117.582031 192.515625 111.59375 187.835938 104.699219 185.929688 C 104.441406 185.855469 104.285156 185.585938 104.359375 185.328125 C 104.429688 185.066406 104.695312 184.914062 104.960938 184.984375 C 112.042969 186.945312 118.113281 191.6875 123.46875 195.875 C 137.074219 206.5 151.140625 217.488281 160.972656 232.171875 C 161.125 232.394531 161.066406 232.699219 160.839844 232.851562 C 160.613281 233 160.3125 232.941406 160.160156 232.714844 Z M 160.160156 232.714844 "/><path style=" stroke:none;fill-rule:nonzero;fill:#dbdbdb;fill-opacity:1;" d="M 143.277344 208.230469 C 134.835938 197.71875 125.472656 187.8125 115.453125 178.792969 C 115.253906 178.613281 115.238281 178.304688 115.417969 178.101562 C 115.601562 177.902344 115.910156 177.886719 116.109375 178.066406 C 126.167969 187.121094 135.566406 197.0625 144.039062 207.617188 C 144.207031 207.828125 144.175781 208.136719 143.964844 208.304688 C 143.753906 208.476562 143.445312 208.441406 143.277344 208.230469 Z M 143.277344 208.230469 "/><path style=" stroke:none;fill-rule:nonzero;fill:#ffffff;fill-opacity:1;" d="M 70.894531 209.996094 L 175.460938 265.609375 "/><path style=" stroke:none;fill-rule:nonzero;fill:#ffffff;fill-opacity:1;" d="M 288.976562 85.265625 L 279.464844 75.5 "/><path style=" stroke:none;fill-rule:nonzero;fill:#dbdbdb;fill-opacity:1;" d="M 171.921875 301.796875 L 97.589844 269.972656 C 97.589844 269.972656 71.628906 211.636719 71.628906 211.636719 C 74.453125 212.25 76.925781 217.089844 78.410156 219.359375 C 80.535156 222.605469 82.769531 225.683594 85.488281 228.472656 C 90.867188 233.992188 97.476562 238.320312 104.722656 240.953125 C 106.84375 241.722656 109.476562 243.015625 109.246094 245.257812 C 109.066406 247.003906 107.171875 247.984375 105.492188 248.503906 C 103.816406 249.023438 101.878906 249.578125 101.144531 251.175781 C 100.511719 252.542969 101.070312 254.21875 102.097656 255.320312 C 103.125 256.421875 104.53125 257.070312 105.902344 257.695312 C 112.265625 260.589844 118.628906 263.484375 124.996094 266.378906 C 126.65625 267.132812 128.535156 268.152344 128.839844 269.953125 C 129.128906 271.632812 127.792969 273.253906 126.203125 273.875 C 124.613281 274.5 122.84375 274.371094 121.144531 274.234375 C 122.382812 274.773438 160.8125 291.453125 161.648438 291.816406 C 165.414062 293.449219 167.589844 296.117188 170.203125 299.300781 C 170.835938 300.078125 171.464844 300.902344 171.921875 301.796875 Z M 171.921875 301.796875 "/><path style=" stroke:none;fill-rule:nonzero;fill:#dbdbdb;fill-opacity:1;" d="M 314.78125 212.042969 L 266.3125 260.515625 L 195.039062 305.757812 C 195.019531 305.738281 195 305.71875 194.988281 305.699219 L 199.460938 296.402344 C 202.972656 295.515625 204.28125 295.875 212.082031 290.777344 C 213.117188 290.097656 214.121094 289.207031 215.222656 288.679688 C 216.367188 288.132812 217.578125 287.992188 218.652344 287.222656 C 219.863281 286.355469 220.769531 284.894531 220.554688 283.417969 C 220.3125 281.785156 218.039062 279.4375 223.597656 276.882812 C 231.160156 273.402344 238.722656 269.925781 246.285156 266.445312 C 250.164062 264.660156 254.144531 262.804688 257.089844 259.710938 C 256.242188 258.832031 254.773438 259.015625 253.667969 259.53125 C 252.5625 260.042969 251.539062 260.828125 250.332031 260.988281 C 249.121094 261.148438 247.652344 260.277344 247.820312 259.066406 C 247.945312 258.167969 248.863281 257.632812 249.671875 257.222656 C 272.5 245.726562 293.265625 229.007812 310.421875 209.78125 C 311.246094 208.855469 312.328125 207.863281 313.480469 207.734375 Z M 314.78125 212.042969 "/><path style=" stroke:none;fill-rule:nonzero;fill:#ffffff;fill-opacity:1;" d="M 314.785156 212.039062 L 220.472656 269.289062 "/><path style=" stroke:none;fill-rule:nonzero;fill:#ffffff;fill-opacity:1;" d="M 195.1875 214.847656 C 195.1875 214.847656 195.175781 214.796875 195.167969 214.699219 C 195.175781 214.746094 195.175781 214.796875 195.1875 214.847656 Z M 195.1875 214.847656 "/><path style=" stroke:none;fill-rule:nonzero;fill:#ffffff;fill-opacity:1;" d="M 195.183594 214.84375 L 200.765625 262.183594 "/><path style=" stroke:none;fill-rule:nonzero;fill:#ffffff;fill-opacity:1;" d="M 188.699219 216.058594 L 191.710938 263.894531 "/><path style=" stroke:none;fill-rule:nonzero;fill:#000000;fill-opacity:1;" d="M 196.410156 112.046875 C 196.589844 113.234375 195.515625 114.496094 194.304688 114.5 C 194.035156 114.5 193.816406 114.71875 193.816406 114.988281 C 193.816406 115.257812 194.039062 115.476562 194.308594 115.476562 C 196.113281 115.476562 197.648438 113.679688 197.378906 111.902344 C 197.152344 110.40625 195.9375 109.410156 195.160156 108.320312 C 194.332031 107.148438 193.492188 104.761719 194.148438 103.496094 C 195.339844 101.1875 199.484375 100.691406 201.824219 100.914062 C 202.066406 100.941406 202.332031 100.746094 202.359375 100.476562 C 202.382812 100.207031 202.1875 99.964844 201.917969 99.941406 C 199.226562 99.679688 194.703125 100.292969 193.277344 103.046875 C 192.398438 104.746094 193.40625 107.535156 194.363281 108.886719 C 195.117188 109.949219 196.234375 110.878906 196.410156 112.046875 Z M 196.410156 112.046875 "/><path style=" stroke:none;fill-rule:nonzero;fill:#000000;fill-opacity:1;" d="M 188.820312 108.746094 C 188.75 107.894531 188.328125 107.230469 187.875 107.269531 C 187.417969 107.304688 187.109375 108.027344 187.175781 108.882812 C 187.246094 109.734375 187.671875 110.394531 188.125 110.359375 C 188.578125 110.320312 188.890625 109.601562 188.820312 108.746094 Z M 188.820312 108.746094 "/><path style=" stroke:none;fill-rule:nonzero;fill:#000000;fill-opacity:1;" d="M 197.757812 106.460938 C 197.304688 106.5 196.992188 107.21875 197.0625 108.074219 C 197.132812 108.925781 197.558594 109.585938 198.011719 109.550781 C 198.464844 109.511719 198.777344 108.792969 198.707031 107.9375 C 198.636719 107.085938 198.214844 106.425781 197.757812 106.460938 Z M 197.757812 106.460938 "/><path style=" stroke:none;fill-rule:nonzero;fill:#000000;fill-opacity:1;" d="M 187.96875 117.925781 C 187.820312 118.152344 187.886719 118.457031 188.113281 118.601562 C 190.851562 120.367188 194.539062 120.386719 197.292969 118.636719 C 197.523438 118.492188 197.589844 118.191406 197.445312 117.960938 C 197.300781 117.734375 196.996094 117.667969 196.769531 117.8125 C 194.367188 119.332031 191.027344 119.320312 188.644531 117.78125 C 188.417969 117.636719 188.117188 117.699219 187.96875 117.925781 Z M 187.96875 117.925781 "/><path style=" stroke:none;fill-rule:nonzero;fill:#000000;fill-opacity:1;" d="M 193.90625 120.96875 C 193.152344 121.832031 191.835938 121.96875 190.914062 121.234375 C 190.703125 121.066406 190.394531 121.097656 190.226562 121.308594 C 190.054688 121.523438 190.089844 121.828125 190.300781 122 C 191.632812 123.058594 193.542969 122.871094 194.640625 121.613281 C 194.820312 121.410156 194.800781 121.101562 194.597656 120.921875 C 194.394531 120.746094 194.085938 120.765625 193.90625 120.96875 Z M 193.90625 120.96875 "/><path style=" stroke:none;fill-rule:nonzero;fill:#000000;fill-opacity:1;" d="M 188.632812 103.890625 C 188.890625 103.925781 189.148438 103.738281 189.183594 103.46875 C 189.21875 103.203125 189.027344 102.957031 188.761719 102.921875 C 185.382812 102.476562 181.820312 103.550781 179.246094 105.789062 C 179.039062 105.96875 179.019531 106.277344 179.195312 106.480469 C 179.375 106.6875 179.683594 106.707031 179.886719 106.53125 C 182.253906 104.46875 185.527344 103.484375 188.632812 103.890625 Z M 188.632812 103.890625 "/><path style=" stroke:none;fill-rule:nonzero;fill:#000000;fill-opacity:1;" d="M 315.257812 212.164062 C 315.277344 212.082031 315.273438 212 315.253906 211.921875 C 315.195312 211.699219 313.664062 206.664062 313.550781 206.300781 C 313.457031 205.980469 313.089844 205.863281 312.824219 206.027344 L 292.75 218.566406 L 296.503906 195.542969 C 296.503906 195.542969 232.816406 246.800781 213.125 267.890625 C 212.773438 267.25 211.980469 266.644531 211.210938 266.046875 C 211.640625 265.589844 214.585938 262.292969 224.175781 252.210938 C 271.09375 202.863281 283.996094 196.785156 289.460938 191.296875 C 289.460938 191.292969 289.460938 191.292969 289.460938 191.292969 C 289.460938 191.292969 289.460938 191.292969 289.464844 191.292969 C 289.464844 191.292969 289.464844 191.289062 289.46875 191.289062 C 289.46875 191.289062 289.46875 191.289062 289.46875 191.285156 C 290 190.769531 289.9375 190.398438 289.59375 189.769531 C 289.304688 189.257812 287.496094 186.152344 286.941406 185.195312 C 286.820312 184.984375 286.566406 184.894531 286.339844 184.984375 C 267.210938 192.394531 223.082031 243.296875 209.765625 258.996094 C 229.460938 227.027344 251.011719 204.039062 269.597656 189.820312 C 276.894531 184.226562 281.417969 181.792969 281.464844 181.769531 C 281.632812 181.675781 281.734375 181.492188 281.722656 181.300781 C 281.457031 177.777344 279.765625 174.261719 276.714844 170.84375 C 278.703125 164.671875 279.925781 160.167969 279.9375 160.125 C 280.007812 159.867188 279.855469 159.601562 279.601562 159.527344 L 276.796875 158.710938 C 279.636719 153.851562 285.453125 152.0625 290.554688 150.039062 C 292.28125 149.351562 294.070312 148.558594 295.292969 147.109375 C 297.589844 144.429688 298.507812 138.625 297.117188 135.609375 C 295.933594 133.039062 293.699219 131.386719 291.539062 129.789062 L 291.390625 129.992188 C 291.390625 129.980469 291.398438 129.972656 291.398438 129.960938 C 291.402344 129.914062 291.402344 129.863281 291.402344 129.816406 L 291.445312 129.71875 C 291.433594 129.710938 291.417969 129.703125 291.40625 129.695312 C 291.550781 125.246094 289.875 120.890625 286.875 117.699219 L 292.539062 106.65625 C 302.523438 111.992188 314.769531 103.820312 313.039062 92.058594 C 311.238281 80.558594 297.003906 76.132812 288.976562 84.5625 L 280.117188 75.464844 C 285.207031 68.484375 280.375 58.363281 271.433594 58.363281 C 265.507812 58.363281 260.6875 63.1875 260.6875 69.121094 C 260.6875 75.046875 265.507812 79.867188 271.433594 79.867188 C 274.628906 79.867188 277.519531 78.476562 279.496094 76.234375 L 288.316406 85.289062 C 282.941406 91.78125 284.410156 101.578125 291.695312 106.152344 L 286.148438 116.964844 C 283.148438 114.148438 279.066406 112.433594 274.667969 112.433594 C 274.667969 112.433594 274.664062 112.433594 274.664062 112.433594 C 266.003906 112.433594 258.859375 119.039062 258 127.476562 C 257.046875 136.871094 264.023438 145.121094 273.285156 145.882812 C 268.457031 146.726562 265.097656 150.90625 264.753906 155.203125 L 264.660156 155.175781 C 264.441406 155.109375 264.199219 155.207031 264.09375 155.410156 L 252.601562 176.683594 C 252.304688 176.933594 252.011719 177.191406 251.722656 177.445312 C 246.65625 169.953125 229.984375 145.699219 229.636719 145.097656 C 227.835938 141.960938 224.527344 140.683594 221.394531 139.503906 C 218.796875 138.523438 216.871094 137.636719 212.980469 136.558594 C 212.316406 134.363281 205.546875 128.871094 204.144531 127.753906 C 203.902344 127.558594 203.546875 127.636719 203.40625 127.910156 C 202.707031 129.257812 202.046875 130.679688 201.402344 132.210938 C 201.035156 129.386719 201.050781 128.988281 200.890625 127.359375 C 206.550781 124.828125 210.226562 119.109375 210.800781 112.085938 C 212.316406 111.648438 213.679688 111.019531 214.84375 110.199219 C 217.402344 108.402344 219.035156 105.550781 219.101562 102.757812 C 219.148438 100.449219 218.050781 98.230469 216.367188 96.882812 C 216.511719 96.914062 216.660156 96.953125 216.804688 96.980469 C 216.5 89.875 216.070312 82.121094 211.140625 76.628906 C 208.738281 73.953125 205.269531 72.117188 201.671875 72.191406 C 198.078125 72.269531 194.480469 74.488281 193.265625 77.871094 C 188.054688 73.210938 179.78125 70.34375 173.300781 72.492188 C 170.324219 73.480469 167.664062 75.652344 166.503906 78.566406 C 165.347656 81.484375 165.914062 85.121094 168.207031 87.261719 C 161.335938 89.460938 157.796875 97.183594 160.730469 103.851562 C 161.234375 104.996094 161.964844 106.09375 163.105469 106.578125 C 161.4375 108.386719 160.796875 111.238281 161.644531 113.753906 C 162.535156 116.390625 164.941406 118.625 167.925781 119.589844 C 169.917969 120.230469 171.945312 120.316406 173.992188 120.0625 C 176.347656 123.566406 179.734375 126.199219 183.851562 127.707031 L 184.0625 129.820312 C 182.746094 129.25 182.234375 131.171875 181.46875 132.292969 L 178.988281 135.96875 C 176.257812 136.671875 173.570312 137.566406 170.996094 138.632812 C 166.316406 140.582031 164.292969 141.828125 160.535156 146.421875 C 153.179688 155.367188 152.800781 157.878906 148.933594 163.207031 C 145.441406 168.03125 141.949219 172.855469 138.445312 177.679688 L 126.863281 155.664062 C 126.742188 155.4375 126.464844 155.34375 126.230469 155.445312 L 125.167969 155.914062 C 125.238281 153.839844 124.875 151.726562 124.492188 149.890625 C 124.015625 147.617188 123.0625 145.703125 121.734375 144.363281 C 120.683594 143.289062 119.359375 142.546875 118.035156 141.917969 C 124.511719 140.664062 125.050781 140.625 125.914062 140.34375 C 131.375 138.695312 134.8125 133.164062 133.710938 127.441406 C 132.546875 121.328125 126.636719 117.328125 120.527344 118.5 L 102.03125 122.042969 C 101.8125 121.828125 101.675781 121.613281 101.359375 121.671875 C 75.113281 126.738281 76.636719 126.363281 75.472656 126.703125 C 69.695312 128.449219 66.199219 134.238281 67.34375 140.167969 C 68.566406 146.558594 74.71875 150.722656 81.097656 149.5 L 90.511719 147.695312 C 93.519531 151.554688 98.1875 154.125 103.070312 154.574219 C 105.929688 154.820312 109.210938 154.40625 111.46875 156.207031 C 112.875 157.335938 112.859375 159.160156 113.410156 161.078125 L 111.300781 162 C 111.085938 162.09375 110.96875 162.324219 111.015625 162.550781 C 111.710938 165.785156 112.390625 168.667969 113.097656 171.359375 C 111.019531 172.984375 100.871094 181.582031 99.585938 195.496094 C 99.566406 195.6875 99.660156 195.867188 99.824219 195.964844 C 100.371094 196.285156 153.554688 227.664062 186.582031 261.96875 C 172.792969 251.347656 105.578125 200.234375 87.601562 199.050781 L 96.679688 218.738281 L 72.320312 206.007812 C 72.054688 205.867188 71.726562 206 71.632812 206.285156 L 70.429688 209.839844 C 70.394531 209.941406 70.417969 210.132812 70.445312 210.199219 C 98.371094 272.816406 97.058594 270.28125 97.394531 270.425781 C 97.496094 270.464844 169.316406 301.210938 174.300781 303.347656 C 174.714844 304.226562 176.730469 308.035156 181.183594 309.429688 C 185.921875 310.921875 190.992188 308.910156 195.191406 306.242188 C 212.140625 295.480469 257.550781 266.65625 266.574219 260.929688 C 266.601562 260.910156 266.632812 260.886719 266.65625 260.863281 C 317.207031 210.300781 315.191406 212.398438 315.253906 212.171875 C 315.253906 212.167969 315.257812 212.164062 315.257812 212.164062 Z M 271.433594 78.886719 C 266.046875 78.886719 261.664062 74.507812 261.664062 69.121094 C 261.664062 63.097656 267.082031 58.449219 273.125 59.488281 C 277.804688 60.3125 281.203125 64.363281 281.203125 69.121094 C 281.203125 74.492188 276.871094 78.886719 271.433594 78.886719 Z M 286.0625 94.253906 C 286.0625 87.125 291.824219 81.164062 299.183594 81.164062 C 305.574219 81.164062 311.082031 85.882812 312.070312 92.207031 C 313.296875 100.453125 306.933594 107.332031 299.140625 107.332031 C 291.929688 107.332031 286.0625 101.464844 286.0625 94.253906 Z M 185.460938 134.644531 C 185.207031 130.945312 185.523438 134.804688 184.871094 128.0625 C 189.929688 129.644531 195.941406 129.320312 199.945312 127.761719 C 200.425781 133.128906 200.496094 132.226562 200.621094 134.117188 C 199.800781 136.199219 198.851562 139.144531 198.777344 139.382812 C 197.125 140.707031 194.691406 141.175781 192.574219 141.347656 C 190.144531 141.546875 187.664062 141.371094 186.449219 139.273438 L 186.449219 139.222656 C 186.378906 137.449219 185.902344 136.570312 185.460938 134.644531 Z M 192.6875 228.628906 C 193.863281 228.519531 195.082031 228.320312 196.273438 228.265625 L 200.183594 261.40625 C 197.480469 261.039062 194.917969 261.121094 192.066406 261.773438 L 189.988281 228.785156 C 190.859375 228.648438 191.824219 228.710938 192.6875 228.628906 Z M 286.308594 186.050781 C 286.363281 186.148438 288.613281 190.015625 288.667969 190.113281 L 288.640625 190.730469 C 284.140625 195.023438 275.113281 200.363281 251.605469 222.988281 C 232.421875 241.457031 211.632812 264.183594 210.421875 265.457031 C 209.402344 264.734375 208.328125 264.097656 207.210938 263.546875 C 220.796875 247.289062 266.671875 194.125 286.308594 186.050781 Z M 269.003906 189.042969 C 249.390625 204.046875 226.648438 228.617188 206.160156 263.054688 C 204.65625 262.410156 203.082031 261.933594 201.476562 261.621094 C 202.96875 257.21875 211.539062 232.941406 226.476562 209.445312 C 237.265625 192.457031 251.851562 175.101562 269.925781 166.238281 C 271.785156 167.457031 274.070312 169.371094 275.804688 171.28125 C 276.257812 171.925781 280.179688 175.707031 280.71875 181.0625 C 279.609375 181.6875 275.332031 184.191406 269.003906 189.042969 Z M 228.246094 178.105469 C 229.738281 181.015625 232.925781 186.933594 237.042969 192.9375 C 233.507812 197.332031 230.019531 202.191406 226.652344 207.390625 Z M 288.03125 131.160156 C 284.789062 128.355469 283.589844 126.675781 281.871094 127.0625 C 280.585938 127.355469 279.917969 128.847656 280.160156 130.164062 C 279.25 129.71875 277.941406 129.738281 277.21875 130.65625 C 276.496094 131.597656 276.84375 132.835938 277.113281 133.484375 C 278.105469 135.929688 279.84375 136.730469 281.605469 138.382812 C 281.78125 138.546875 281.960938 138.707031 282.125 138.886719 C 282.914062 139.757812 283.46875 141.1875 283.089844 142.25 C 281.707031 140.375 279.824219 138.292969 278.21875 136.785156 C 277.660156 136.273438 277.101562 135.785156 276.40625 135.492188 C 275.550781 135.132812 274.640625 135.167969 273.96875 135.585938 C 272.746094 136.347656 272.667969 138.054688 273.292969 139.195312 C 274.222656 140.914062 276.347656 141.523438 276.644531 143.324219 C 276.644531 143.328125 276.648438 143.332031 276.648438 143.335938 C 276.742188 143.917969 276.582031 144.457031 276.125 144.898438 C 267.0625 145.847656 258.894531 138.546875 258.894531 129.1875 C 258.894531 126.46875 259.582031 123.910156 260.800781 121.675781 C 267.175781 109.953125 284.402344 110.917969 289.351562 123.40625 C 289.355469 123.414062 289.359375 123.417969 289.359375 123.421875 C 290.050781 125.191406 290.429688 127.113281 290.441406 129.125 C 289.027344 128.539062 287.773438 129.511719 288.03125 131.160156 Z M 273.066406 146.914062 C 273.945312 146.734375 274.875 146.667969 275.777344 146.296875 C 277.519531 145.539062 278.070312 143.832031 277.328125 142.269531 C 276.585938 140.65625 274.867188 140.054688 274.152344 138.730469 C 273.746094 137.988281 273.785156 136.855469 274.488281 136.417969 C 274.84375 136.195312 275.417969 136.136719 276.027344 136.394531 C 277.351562 136.953125 280.203125 140.21875 281.039062 141.238281 C 282.324219 142.753906 282.574219 143.277344 282.785156 143.460938 C 283.011719 143.714844 283.398438 143.726562 283.664062 143.257812 C 284.082031 142.660156 284.289062 141.78125 284.136719 140.835938 C 283.632812 137.824219 280.722656 136.757812 279.085938 134.855469 C 278.402344 134.074219 277.46875 132.445312 277.859375 131.484375 C 278.152344 130.777344 279.125 130.71875 279.785156 131.074219 C 280.421875 131.40625 280.867188 132.011719 281.269531 132.542969 C 281.261719 132.699219 281.324219 132.859375 281.460938 132.960938 C 283.769531 134.640625 285.464844 137.078125 286.238281 139.824219 C 286.300781 140.039062 286.496094 140.179688 286.710938 140.179688 C 287.035156 140.179688 287.269531 139.871094 287.179688 139.558594 C 286.359375 136.640625 284.5625 134.050781 282.132812 132.242188 C 282.132812 132.148438 282.113281 132.050781 282.058594 131.96875 C 281.640625 131.335938 281.183594 130.59375 281.09375 129.800781 C 281.011719 129.066406 281.390625 128.175781 282.085938 128.015625 C 282.769531 127.863281 283.535156 128.4375 284.183594 129.027344 L 288.503906 132.898438 C 288.527344 132.996094 288.570312 133.09375 288.652344 133.167969 C 290.25 134.558594 291.175781 136.65625 291.136719 138.773438 C 291.132812 139.042969 291.347656 139.265625 291.617188 139.269531 C 291.621094 139.269531 291.625 139.269531 291.628906 139.269531 C 291.894531 139.269531 292.113281 139.058594 292.117188 138.789062 C 292.160156 136.519531 291.210938 134.277344 289.578125 132.703125 C 289.5625 132.59375 289.515625 132.488281 289.429688 132.410156 L 289.425781 132.410156 C 289.238281 132.214844 289.003906 131.203125 288.972656 130.816406 C 288.949219 130.390625 289.136719 129.953125 289.578125 129.929688 C 290.160156 129.902344 291.058594 130.652344 290.957031 130.578125 C 293.019531 132.101562 295.148438 133.675781 296.226562 136.019531 C 297.464844 138.699219 296.601562 144.074219 294.550781 146.476562 C 291.355469 150.25 280.171875 150.613281 275.824219 158.425781 L 265.710938 155.480469 C 265.933594 151.441406 269.085938 147.726562 273.066406 146.914062 Z M 264.765625 156.226562 L 264.902344 156.265625 C 265.230469 156.550781 277.074219 159.820312 278.863281 160.332031 C 278.515625 161.582031 277.476562 165.253906 275.957031 170.011719 C 274.09375 168.074219 271.8125 166.257812 270.214844 165.261719 C 270.066406 165.171875 269.84375 165.191406 269.742188 165.238281 C 264.371094 167.84375 259.175781 171.3125 254.625 174.992188 Z M 221.050781 140.417969 C 223.84375 141.46875 227.167969 142.757812 228.789062 145.585938 C 229.042969 146.027344 248.816406 174.894531 250.980469 178.09375 C 246.269531 182.296875 241.6875 187.230469 237.679688 192.140625 C 232.925781 185.164062 229.441406 178.335938 228.46875 176.371094 C 228.4375 176.3125 228.398438 176.261719 228.347656 176.21875 L 228.976562 164.671875 C 229.011719 164.046875 228.039062 163.941406 228 164.617188 L 225.582031 209.03125 C 211.75 230.816406 203.367188 253.253906 201 260 C 200.988281 259.898438 195.589844 214.089844 195.65625 214.644531 C 194.660156 205.578125 211.339844 173.660156 211.507812 173.335938 C 211.609375 173.140625 211.566406 172.902344 211.40625 172.75 L 205.386719 167.136719 L 214.589844 160.480469 C 214.726562 160.382812 214.804688 160.21875 214.789062 160.050781 C 214.777344 159.855469 213.46875 142.136719 213.117188 137.621094 C 216.839844 138.683594 218.40625 139.421875 221.050781 140.417969 Z M 204.003906 128.894531 C 207.449219 131.683594 211.980469 135.792969 212.074219 136.859375 C 212.074219 137.324219 211.824219 133.105469 213.792969 159.847656 L 204.328125 166.691406 C 204.082031 166.871094 204.054688 167.234375 204.28125 167.449219 L 210.46875 173.214844 C 208.84375 176.332031 197.628906 198.144531 195.128906 209.90625 C 192.769531 185.746094 193 150.738281 204.003906 128.894531 Z M 218.125 102.734375 C 218.0625 105.222656 216.589844 107.777344 214.28125 109.398438 C 213.289062 110.097656 212.136719 110.644531 210.859375 111.042969 C 210.90625 109.78125 210.902344 108.449219 210.613281 106.449219 C 211.785156 106.933594 213.066406 106.121094 212.527344 105.5 C 212.347656 105.296875 212.039062 105.277344 211.835938 105.453125 C 211.550781 105.703125 211.007812 105.660156 210.699219 105.363281 C 210.105469 104.789062 210.195312 103.582031 211.402344 102.75 C 211.847656 102.445312 212.363281 102.242188 212.875 102.070312 C 212.910156 102.121094 212.960938 102.164062 212.996094 102.21875 C 213.550781 103.0625 213.726562 104.15625 213.464844 105.132812 C 213.378906 105.445312 213.613281 105.75 213.9375 105.75 C 214.152344 105.75 214.351562 105.605469 214.410156 105.390625 C 215.121094 102.75 213.355469 100.054688 210.640625 99.664062 C 210.371094 99.625 210.125 99.8125 210.085938 100.078125 C 210.046875 100.347656 210.234375 100.59375 210.5 100.632812 C 211.082031 100.714844 211.625 100.960938 212.097656 101.308594 C 211.175781 101.664062 210.417969 102.117188 209.863281 102.9375 C 209.398438 101.292969 208.855469 99.910156 208.148438 98.464844 C 208.152344 98.460938 208.152344 98.453125 208.15625 98.445312 C 209.792969 96.851562 212.113281 96.160156 214.050781 96.730469 C 216.429688 97.433594 218.179688 100.015625 218.125 102.734375 Z M 168.226562 118.65625 C 165.53125 117.789062 163.363281 115.789062 162.570312 113.441406 C 161.75 111 162.527344 108.210938 164.359375 106.746094 C 164.90625 106.632812 165.347656 106.285156 165.820312 105.941406 C 167.335938 105.421875 169.148438 105.554688 170.730469 106.34375 C 170.539062 108.019531 170.558594 109.71875 170.773438 111.394531 C 169.996094 110.617188 168.96875 110.355469 167.894531 110.285156 C 168.242188 109.8125 168.6875 109.417969 169.21875 109.164062 C 169.460938 109.046875 169.566406 108.753906 169.449219 108.511719 C 169.332031 108.269531 169.039062 108.164062 168.796875 108.28125 C 166.324219 109.460938 165.4375 112.558594 166.90625 114.867188 C 166.996094 115.015625 167.15625 115.097656 167.316406 115.097656 C 167.699219 115.097656 167.941406 114.671875 167.730469 114.34375 C 167.1875 113.488281 167.03125 112.394531 167.308594 111.417969 C 167.328125 111.359375 167.359375 111.304688 167.382812 111.242188 C 167.917969 111.257812 168.472656 111.292969 168.988281 111.453125 C 170.390625 111.890625 170.832031 113.011719 170.4375 113.738281 C 170.230469 114.113281 169.722656 114.316406 169.378906 114.164062 C 168.78125 113.90625 168.398438 114.800781 168.984375 115.058594 C 169.195312 115.152344 169.421875 115.195312 169.644531 115.195312 C 170.28125 115.195312 170.957031 114.851562 171.316406 114.15625 C 171.78125 115.902344 172.480469 117.582031 173.398438 119.132812 C 171.53125 119.304688 169.789062 119.160156 168.226562 118.65625 Z M 174.492188 119.0625 C 172.042969 115.171875 171.109375 110.328125 171.800781 105.765625 C 172.207031 105.804688 172.609375 105.8125 173.003906 105.746094 C 174.820312 105.421875 176.21875 103.933594 177.105469 102.320312 C 177.996094 100.703125 178.507812 98.90625 179.371094 97.277344 C 180.761719 94.652344 183.078125 92.605469 185.71875 91.4375 C 186.875 90.925781 188.640625 90.1875 189.933594 90.425781 C 190.332031 90.5 192.757812 91.730469 192.511719 92.144531 C 194.285156 89.140625 199.230469 90.179688 202.035156 92.136719 C 204.003906 93.742188 205.695312 95.851562 207.019531 98.398438 C 207.300781 99.09375 207.519531 99.804688 207.585938 100.074219 C 207.632812 100.25 207.777344 100.453125 207.808594 100.601562 C 207.761719 100.382812 207.75 100.160156 207.757812 99.941406 C 212.800781 111.546875 208.695312 124.359375 198.507812 127.207031 C 189.621094 129.8125 179.492188 127.011719 174.492188 119.0625 Z M 182.28125 132.84375 C 182.742188 132.164062 183.449219 130.597656 183.65625 130.707031 C 183.945312 130.78125 184.089844 132.886719 184.492188 134.789062 C 185.085938 138.164062 186.585938 137.167969 184.171875 152.394531 C 183.605469 155.972656 183.019531 159.667969 183.035156 163.285156 C 183.070312 175.03125 183.808594 188.398438 184.746094 200.09375 C 184.863281 201.550781 186.171875 206.871094 186.757812 209.355469 L 171.414062 167.621094 L 176.421875 160.109375 C 176.53125 159.941406 176.53125 159.722656 176.414062 159.558594 L 170.195312 150.59375 C 170.546875 150.011719 171.652344 148.558594 171.738281 148.429688 C 173.363281 146.050781 182.210938 132.941406 182.28125 132.84375 Z M 110.746094 143.570312 C 110.261719 143.609375 109.769531 143.613281 109.277344 143.597656 L 110.433594 143.375 C 110.539062 143.441406 110.632812 143.507812 110.746094 143.570312 Z M 80.914062 148.539062 C 75.066406 149.660156 69.425781 145.84375 68.304688 139.984375 C 67.253906 134.546875 70.460938 129.242188 75.75 127.640625 C 76.808594 127.335938 75.167969 127.71875 101.296875 122.683594 C 105.058594 126.324219 107.128906 132.328125 106.460938 137.71875 C 106.226562 139.484375 105.726562 141.191406 104.96875 142.800781 C 102.523438 141.953125 102.222656 141.265625 101.074219 140.726562 C 94.363281 137.609375 93.347656 135.574219 91.6875 136.175781 C 90.683594 136.527344 90.074219 137.910156 90.886719 139.40625 C 89.371094 139.574219 88.710938 141.191406 89.382812 142.671875 C 89.621094 143.207031 89.976562 143.640625 90.371094 144.050781 C 89.863281 144.414062 89.515625 145 89.476562 145.640625 C 89.460938 146.03125 89.46875 146.5 89.652344 146.863281 Z M 112.078125 155.441406 C 109.53125 153.410156 106.027344 153.84375 103.15625 153.597656 C 98.441406 153.164062 93.933594 150.648438 91.144531 146.945312 C 90.839844 146.324219 90.402344 146.976562 90.457031 145.6875 C 90.480469 145.261719 90.808594 144.863281 91.210938 144.722656 C 93.660156 147.347656 96.738281 149.359375 100.128906 150.539062 C 100.742188 150.757812 101.058594 149.828125 100.449219 149.617188 C 97.171875 148.472656 94.191406 146.519531 91.839844 143.960938 C 91.75 143.867188 91.628906 143.816406 91.507812 143.808594 C 91.007812 143.316406 90.539062 142.851562 90.273438 142.269531 C 89.976562 141.617188 90.027344 140.757812 90.6875 140.46875 C 90.726562 140.453125 90.769531 140.449219 90.8125 140.4375 C 90.992188 140.382812 91.105469 140.371094 91.292969 140.402344 C 91.332031 140.40625 91.371094 140.40625 91.410156 140.417969 C 91.519531 140.449219 91.621094 140.492188 91.710938 140.5625 C 91.71875 140.570312 91.722656 140.578125 91.730469 140.585938 C 94.472656 143 97.757812 144.875 101.234375 146.007812 C 101.851562 146.214844 102.148438 145.277344 101.535156 145.078125 C 98.195312 143.988281 95.035156 142.183594 92.394531 139.867188 C 91.953125 139.300781 91.605469 138.824219 91.503906 138.285156 C 91.421875 137.828125 91.59375 137.246094 92.011719 137.101562 C 92.398438 136.960938 92.863281 137.1875 93.449219 137.566406 C 98.808594 141.011719 100.238281 141.234375 101.613281 142.203125 C 104.589844 144.304688 108.800781 145.023438 112.460938 144.332031 C 112.921875 144.246094 113.007812 143.617188 112.585938 143.414062 C 111.511719 142.890625 110.605469 142.441406 109.851562 141.765625 C 109.117188 141.117188 108.4375 140.144531 108.578125 139.644531 C 108.730469 139.109375 109.832031 139.398438 110.335938 139.621094 L 116.082031 142.113281 C 117.628906 142.808594 119.589844 143.570312 121.035156 145.050781 C 122.234375 146.257812 123.097656 148 123.535156 150.089844 C 123.933594 152.007812 124.316406 154.238281 124.167969 156.355469 L 114.304688 160.6875 C 113.84375 158.984375 113.78125 156.808594 112.078125 155.441406 Z M 126.210938 156.527344 L 137.945312 178.832031 C 138.117188 179.152344 138.566406 179.183594 138.777344 178.890625 C 142.433594 173.855469 146.078125 168.816406 149.722656 163.78125 C 153.683594 158.324219 154.003906 155.90625 161.289062 147.042969 C 164.925781 142.601562 166.820312 141.433594 171.371094 139.535156 C 173.558594 138.632812 175.832031 137.859375 178.144531 137.214844 C 172.25 145.925781 171.164062 147.5625 170.707031 148.179688 C 169.074219 150.378906 169 150.574219 169.242188 150.9375 L 175.421875 159.84375 L 170.460938 167.285156 C 170.375 167.414062 170.355469 167.578125 170.40625 167.726562 L 188.214844 216.152344 L 191.101562 262.019531 C 190.390625 262.214844 189.691406 262.441406 189.003906 262.703125 C 181.914062 249.429688 172.890625 234.066406 164.105469 220.734375 C 163.710938 203.515625 164.964844 185.066406 161.574219 168.140625 C 161.519531 167.875 161.261719 167.699219 161 167.757812 C 160.734375 167.808594 160.5625 168.066406 160.613281 168.332031 C 161.1875 171.1875 161.621094 174.089844 161.957031 177.027344 C 157.574219 184.960938 152.417969 192.777344 148.132812 198.433594 C 140.609375 188.921875 126.109375 172.089844 114.019531 171.023438 C 113.355469 168.480469 112.710938 165.761719 112.058594 162.738281 C 114.445312 161.699219 121.632812 158.542969 126.210938 156.527344 Z M 163.101562 219.214844 C 158.570312 212.402344 153.714844 205.546875 148.753906 199.222656 C 152.503906 194.324219 157.75 186.519531 162.136719 178.703125 C 163.488281 192.023438 162.863281 205.628906 163.101562 219.214844 Z M 100.589844 195.28125 C 102.011719 181.425781 112.46875 173.0625 113.878906 171.992188 C 137.671875 173.980469 175.488281 239.730469 186.917969 260.902344 C 154.992188 227.914062 104.738281 197.746094 100.589844 195.28125 Z M 97.957031 269.601562 L 72.074219 211.4375 L 71.921875 211.09375 C 179.96875 268.535156 175.226562 266.097656 175.460938 266.097656 C 175.972656 266.097656 176.140625 265.414062 175.691406 265.175781 L 71.492188 209.757812 L 72.375 207.140625 C 73.675781 207.820312 58.109375 199.679688 184.714844 265.878906 L 174.34375 302.300781 Z M 181.488281 308.5 C 177.464844 307.242188 175.5625 303.699219 175.1875 302.929688 L 185.566406 266.476562 C 185.578125 266.488281 185.589844 266.496094 185.605469 266.507812 C 185.957031 267.085938 186.539062 267.507812 187.125 267.871094 C 187.695312 268.226562 188.28125 268.550781 188.871094 268.867188 C 197.566406 274.246094 205.851562 272.460938 209.988281 270.9375 C 210.445312 270.789062 210.902344 270.628906 211.363281 270.464844 C 209.640625 274.046875 217.59375 257.488281 194.542969 305.496094 C 189.550781 308.636719 185.160156 309.648438 181.488281 308.5 Z M 266.003906 260.132812 L 196.113281 304.496094 C 197.832031 300.921875 189.914062 317.410156 212.847656 269.640625 C 212.949219 269.546875 211.082031 270.738281 312.800781 207.195312 C 313.027344 207.953125 314.257812 212.003906 314.203125 211.820312 L 220.214844 268.871094 C 219.984375 269.011719 219.914062 269.3125 220.050781 269.542969 C 220.195312 269.777344 220.496094 269.84375 220.726562 269.707031 L 311.574219 214.5625 Z M 266.003906 260.132812 "/></g></svg>