<svg xmlns="http://www.w3.org/2000/svg" xmlns:xlink="http://www.w3.org/1999/xlink" width="500" zoomAndPan="magnify" viewBox="0 0 375 374.999991" height="500" preserveAspectRatio="xMidYMid meet" version="1.2"><defs><clipPath id="9525189921"><path d="M 309 42.367188 L 329.703125 42.367188 L 329.703125 49 L 309 49 Z M 309 42.367188 "/></clipPath><clipPath id="5cfaab0797"><path d="M 64 301 L 87 301 L 87 332.617188 L 64 332.617188 Z M 64 301 "/></clipPath><clipPath id="87f54f35f3"><path d="M 45.453125 160 L 93 160 L 93 183 L 45.453125 183 Z M 45.453125 160 "/></clipPath></defs><g id="1e16728017"><path style=" stroke:none;fill-rule:nonzero;fill:#909092;fill-opacity:1;" d="M 231.539062 48.792969 C 231.734375 49.273438 232.082031 49.695312 232.5625 49.984375 C 249.773438 60.402344 254.65625 77.003906 247.207031 99.789062 L 247.191406 99.847656 C 245.347656 105.992188 239.8125 111.84375 230.585938 117.402344 L 230.566406 117.402344 C 223.316406 120.914062 215.285156 122.675781 206.46875 122.683594 C 195.355469 121.167969 186.757812 114.589844 180.671875 102.945312 L 180.667969 102.945312 C 175.554688 91.621094 174.761719 80.867188 178.296875 70.683594 C 178.335938 70.558594 178.371094 70.4375 178.394531 70.308594 C 179.457031 64.484375 184.398438 60 193.210938 56.851562 L 193.328125 56.808594 C 201.480469 53.425781 208.042969 51.238281 213.015625 50.253906 L 213 50.253906 L 229.425781 49.976562 C 230.3125 49.964844 231.085938 49.492188 231.523438 48.792969 Z M 229.386719 44.945312 C 229.371094 44.945312 229.355469 44.945312 229.34375 44.945312 L 212.710938 45.222656 C 212.566406 45.222656 212.417969 45.238281 212.277344 45.265625 C 206.941406 46.296875 199.980469 48.59375 191.398438 52.15625 L 191.390625 52.15625 C 180.871094 55.941406 174.894531 61.660156 173.457031 69.316406 L 173.441406 69.316406 C 169.582031 80.675781 170.460938 92.578125 176.078125 105.015625 L 176.140625 105.140625 C 183.0625 118.472656 193.007812 125.992188 205.972656 127.695312 C 206.082031 127.710938 206.1875 127.71875 206.296875 127.71875 C 206.332031 127.71875 206.367188 127.71875 206.402344 127.71875 C 216.09375 127.71875 224.949219 125.757812 232.964844 121.835938 L 233.15625 121.730469 C 243.480469 115.515625 249.761719 108.722656 251.996094 101.355469 C 260.269531 76.035156 254.660156 57.476562 235.167969 45.679688 C 234.761719 45.429688 234.3125 45.3125 233.867188 45.3125 C 233.019531 45.3125 232.191406 45.742188 231.71875 46.519531 C 231.34375 45.59375 230.4375 44.945312 229.386719 44.945312 Z M 229.386719 44.945312 "/><path style=" stroke:none;fill-rule:nonzero;fill:#909092;fill-opacity:1;" d="M 226.328125 59.414062 C 226.050781 59.414062 225.769531 59.433594 225.488281 59.480469 L 225.476562 59.480469 C 224.472656 59.609375 221.761719 60.152344 217.347656 61.101562 C 216.660156 61.234375 216.007812 61.339844 215.394531 61.425781 C 214.019531 61.617188 213.058594 62.886719 213.25 64.265625 C 213.421875 65.523438 214.5 66.4375 215.738281 66.4375 C 215.855469 66.4375 215.96875 66.429688 216.085938 66.414062 C 216.804688 66.3125 217.558594 66.1875 218.355469 66.035156 L 218.410156 66.023438 C 222.84375 65.070312 225.425781 64.550781 226.160156 64.46875 L 226.265625 64.453125 C 226.292969 64.449219 226.3125 64.445312 226.324219 64.445312 C 226.332031 64.445312 226.335938 64.445312 226.339844 64.449219 C 226.347656 64.449219 226.359375 64.457031 226.378906 64.46875 C 226.574219 64.597656 226.722656 64.816406 226.828125 65.132812 L 226.871094 65.257812 C 227.242188 66.214844 228.054688 69.371094 229.308594 74.726562 C 229.578125 75.886719 230.613281 76.667969 231.757812 76.667969 C 231.945312 76.667969 232.140625 76.648438 232.332031 76.601562 C 233.6875 76.285156 234.527344 74.929688 234.210938 73.578125 C 232.945312 68.179688 232.082031 64.839844 231.613281 63.5625 L 231.609375 63.5625 C 231.125 62.085938 230.265625 60.960938 229.035156 60.191406 L 229.019531 60.179688 C 228.585938 59.914062 228.128906 59.714844 227.652344 59.585938 C 227.535156 59.554688 227.417969 59.527344 227.300781 59.503906 C 226.980469 59.441406 226.65625 59.414062 226.328125 59.414062 Z M 226.328125 59.414062 "/><path style=" stroke:none;fill-rule:nonzero;fill:#909092;fill-opacity:1;" d="M 208.292969 75.867188 C 207.515625 75.867188 206.746094 76.230469 206.253906 76.910156 C 205.4375 78.035156 205.691406 79.609375 206.816406 80.425781 C 207.5 80.917969 208.257812 81.359375 209.09375 81.75 L 209.195312 81.792969 C 211.773438 82.863281 213.246094 83.5 213.609375 83.695312 L 213.601562 83.695312 C 213.660156 83.730469 213.71875 83.765625 213.78125 83.796875 C 214.910156 84.375 215.980469 85.011719 216.988281 85.710938 C 218.738281 86.925781 220.582031 88.832031 222.523438 91.4375 C 223.019531 92.101562 223.777344 92.449219 224.546875 92.449219 C 225.070312 92.449219 225.597656 92.289062 226.046875 91.949219 C 227.164062 91.121094 227.390625 89.542969 226.5625 88.429688 C 224.289062 85.382812 222.054688 83.097656 219.855469 81.574219 L 219.855469 81.570312 C 218.726562 80.789062 217.535156 80.074219 216.285156 79.421875 L 216.269531 79.421875 C 216.1875 79.371094 216.101562 79.320312 216.011719 79.269531 C 215.5 78.992188 213.90625 78.300781 211.226562 77.1875 L 211.222656 77.1875 C 210.675781 76.933594 210.191406 76.652344 209.769531 76.347656 C 209.324219 76.023438 208.804688 75.867188 208.292969 75.867188 Z M 208.292969 75.867188 "/><path style=" stroke:none;fill-rule:nonzero;fill:#909092;fill-opacity:1;" d="M 137.390625 165.058594 C 137.738281 165.058594 138.089844 165.160156 138.453125 165.363281 C 138.148438 165.238281 137.824219 165.175781 137.507812 165.175781 C 136.898438 165.175781 136.296875 165.398438 135.828125 165.816406 L 135.816406 165.816406 C 136.320312 165.3125 136.84375 165.058594 137.390625 165.058594 Z M 164.621094 106.4375 C 171.417969 114.457031 181.195312 120.945312 193.949219 125.902344 C 200.871094 128.652344 205.875 130.296875 208.957031 130.835938 L 209.183594 130.867188 C 218.359375 131.625 225.132812 132 229.503906 132 C 230.742188 132 231.785156 131.972656 232.640625 131.910156 L 232.65625 131.910156 C 232.246094 133.289062 231.347656 134.960938 229.953125 136.929688 L 229.949219 136.929688 L 204.0625 171.917969 L 204.046875 171.917969 C 197.796875 178.0625 186.632812 188.371094 170.554688 202.84375 C 166.296875 206.589844 163.152344 208.925781 161.128906 209.847656 L 161.113281 209.847656 C 156.738281 210.808594 153.042969 211.292969 150.019531 211.292969 C 146.113281 211.292969 143.332031 210.488281 141.679688 208.882812 C 141.617188 208.820312 141.546875 208.761719 141.480469 208.707031 C 137.976562 205.960938 136.164062 198.773438 136.039062 187.148438 L 136.03125 186.988281 C 135.71875 182.820312 137.003906 176.667969 139.878906 168.535156 C 139.941406 168.359375 139.980469 168.183594 140.003906 168.003906 L 139.988281 168.003906 C 140.742188 165.96875 144.917969 156.667969 152.515625 140.113281 C 152.5625 140.011719 152.601562 139.914062 152.632812 139.808594 C 157.847656 123.015625 161.839844 111.890625 164.605469 106.4375 Z M 165.484375 101 C 164.9375 101 164.386719 101.175781 163.925781 101.539062 C 163.65625 101.753906 163.441406 102.011719 163.28125 102.292969 C 163.074219 102.238281 162.863281 102.214844 162.65625 102.214844 C 161.753906 102.214844 160.878906 102.699219 160.429688 103.554688 C 157.511719 109.070312 153.316406 120.640625 147.839844 138.265625 L 147.824219 138.265625 C 139.789062 155.777344 135.539062 165.292969 135.078125 166.8125 C 135.011719 167.027344 134.96875 167.238281 134.941406 167.4375 L 134.925781 167.4375 C 131.960938 175.957031 130.65625 182.597656 131.011719 187.363281 L 131.003906 187.363281 C 131.167969 200.503906 133.621094 208.941406 138.371094 212.667969 L 138.355469 212.667969 C 140.953125 215.066406 144.902344 216.269531 150.207031 216.269531 C 153.707031 216.269531 157.800781 215.746094 162.480469 214.699219 C 162.628906 214.667969 162.777344 214.621094 162.917969 214.558594 C 165.4375 213.484375 169.097656 210.835938 173.902344 206.605469 L 173.925781 206.585938 C 190.230469 191.90625 201.515625 181.480469 207.777344 175.308594 C 207.871094 175.214844 207.957031 175.117188 208.035156 175.011719 L 234.03125 139.882812 L 234.0625 139.839844 C 236.300781 136.675781 237.570312 133.90625 237.867188 131.53125 C 237.878906 131.4375 237.886719 131.339844 237.886719 131.242188 C 237.890625 130.765625 237.847656 130.320312 237.753906 129.90625 C 237.378906 128.21875 236.375 127.164062 234.742188 126.734375 C 234.53125 126.675781 234.316406 126.648438 234.101562 126.648438 C 233.828125 126.648438 233.558594 126.695312 233.296875 126.78125 C 232.746094 126.953125 231.578125 127.039062 229.789062 127.039062 C 225.957031 127.039062 219.277344 126.644531 209.746094 125.863281 L 209.730469 125.863281 C 206.972656 125.363281 202.324219 123.8125 195.789062 121.214844 L 195.773438 121.210938 C 183.15625 116.308594 173.71875 109.890625 167.460938 101.957031 C 166.964844 101.328125 166.226562 101 165.484375 101 Z M 165.484375 101 "/><path style=" stroke:none;fill-rule:nonzero;fill:#909092;fill-opacity:1;" d="M 309.539062 59.265625 C 308.921875 59.265625 308.300781 59.492188 307.816406 59.949219 C 297.605469 69.550781 284.746094 80.269531 269.234375 92.105469 C 269.125 92.183594 269.027344 92.277344 268.933594 92.371094 L 239.902344 122.976562 L 239.886719 122.992188 C 237.367188 125.695312 235.5625 127.765625 234.464844 129.207031 C 233.625 130.3125 233.839844 131.890625 234.945312 132.734375 C 235.402344 133.078125 235.9375 133.246094 236.46875 133.246094 C 237.226562 133.246094 237.976562 132.90625 238.472656 132.253906 C 239.464844 130.949219 241.160156 129.011719 243.554688 126.441406 L 272.402344 96.03125 L 272.386719 96.03125 C 287.992188 84.121094 300.953125 73.316406 311.265625 63.613281 C 312.277344 62.664062 312.324219 61.070312 311.375 60.058594 C 310.878906 59.53125 310.210938 59.265625 309.539062 59.265625 Z M 309.539062 59.265625 "/><path style=" stroke:none;fill-rule:nonzero;fill:#909092;fill-opacity:1;" d="M 319.6875 54.023438 C 321.175781 57.308594 321.722656 59.492188 321.335938 60.5625 L 321.285156 60.722656 C 321.175781 61.105469 320.988281 61.367188 320.71875 61.511719 C 320.582031 61.589844 320.449219 61.675781 320.328125 61.777344 L 320.3125 61.777344 C 319.761719 62.019531 318.476562 62.34375 316.453125 62.75 L 316.433594 62.75 C 316.332031 62.757812 316.238281 62.765625 316.144531 62.765625 C 315.625 62.765625 315.25 62.609375 315.015625 62.296875 L 315.011719 62.296875 C 314.289062 61.164062 314.03125 60.085938 314.238281 59.066406 L 314.234375 59.066406 C 314.625 57.632812 315.304688 56.488281 316.269531 55.644531 L 316.359375 55.5625 C 316.488281 55.4375 316.761719 55.273438 317.175781 55.066406 C 318.1875 54.613281 319.019531 54.261719 319.671875 54.023438 Z M 321.085938 48.582031 C 320.871094 48.582031 320.652344 48.609375 320.4375 48.667969 C 320.425781 48.667969 320.414062 48.667969 320.402344 48.667969 C 320.242188 48.667969 320.085938 48.683594 319.925781 48.710938 C 318.875 48.914062 317.269531 49.503906 315.105469 50.476562 L 315.042969 50.507812 C 314.113281 50.957031 313.386719 51.433594 312.863281 51.9375 L 312.859375 51.9375 C 311.179688 53.441406 310.019531 55.375 309.375 57.746094 L 309.355469 57.839844 C 308.792969 60.257812 309.265625 62.648438 310.765625 65.003906 L 310.796875 65.050781 C 312.03125 66.890625 313.765625 67.808594 316.011719 67.808594 C 316.390625 67.808594 316.78125 67.78125 317.183594 67.730469 L 317.359375 67.703125 C 320.074219 67.160156 321.886719 66.648438 322.796875 66.160156 C 322.980469 66.066406 323.144531 65.960938 323.300781 65.847656 L 323.28125 65.847656 C 324.648438 65.058594 325.582031 63.867188 326.074219 62.273438 L 326.070312 62.273438 C 327.011719 59.671875 326.101562 55.574219 323.34375 49.984375 C 322.90625 49.097656 322.011719 48.582031 321.085938 48.582031 Z M 321.085938 48.582031 "/><g clip-rule="nonzero" clip-path="url(#9525189921)"><path style=" stroke:none;fill-rule:nonzero;fill:#909092;fill-opacity:1;" d="M 322.097656 42.304688 C 322.0625 42.304688 322.03125 42.304688 322 42.304688 L 321.953125 42.304688 C 321.542969 42.3125 321.132812 42.34375 320.71875 42.386719 C 319.859375 42.484375 318.964844 42.597656 318.039062 42.726562 C 317.507812 42.792969 316.453125 42.976562 314.875 43.28125 L 314.867188 43.28125 C 314.566406 43.332031 314.269531 43.375 313.980469 43.410156 L 313.96875 43.414062 C 313.28125 43.5 312.464844 43.554688 311.523438 43.570312 C 310.132812 43.59375 309.027344 44.738281 309.050781 46.128906 C 309.074219 47.503906 310.195312 48.601562 311.566406 48.601562 C 311.578125 48.601562 311.59375 48.601562 311.609375 48.601562 C 312.730469 48.585938 313.726562 48.519531 314.59375 48.40625 C 314.980469 48.359375 315.371094 48.304688 315.769531 48.234375 L 315.828125 48.226562 C 317.34375 47.933594 318.289062 47.765625 318.675781 47.71875 L 318.726562 47.714844 C 319.613281 47.589844 320.464844 47.484375 321.285156 47.390625 L 321.289062 47.390625 C 321.539062 47.363281 321.792969 47.34375 322.042969 47.339844 L 322.023438 47.339844 C 322.050781 47.335938 322.078125 47.335938 322.105469 47.335938 C 322.796875 47.335938 323.328125 47.378906 323.707031 47.460938 L 323.800781 47.480469 C 324.210938 47.554688 324.863281 47.742188 325.757812 48.042969 C 326.023438 48.132812 326.296875 48.175781 326.5625 48.175781 C 327.613281 48.175781 328.59375 47.515625 328.949219 46.464844 C 329.394531 45.148438 328.6875 43.71875 327.371094 43.273438 C 326.296875 42.910156 325.433594 42.667969 324.789062 42.542969 L 324.78125 42.542969 C 324.050781 42.382812 323.15625 42.304688 322.097656 42.304688 Z M 322.097656 42.304688 "/></g><path style=" stroke:none;fill-rule:nonzero;fill:#909092;fill-opacity:1;" d="M 143.121094 81.785156 C 142.976562 81.785156 142.832031 81.796875 142.683594 81.824219 C 141.3125 82.0625 140.398438 83.367188 140.640625 84.738281 C 140.902344 86.226562 140.535156 88.671875 139.542969 92.074219 L 139.539062 92.074219 L 132.386719 112.222656 L 132.351562 112.328125 C 129.601562 121.320312 127.621094 127.472656 126.414062 130.785156 L 126.351562 130.976562 C 126.253906 131.335938 126.183594 131.660156 126.144531 131.945312 C 126.039062 132.71875 126.148438 133.394531 126.46875 133.96875 L 126.453125 133.96875 C 127.074219 135.335938 128.117188 136.019531 129.578125 136.019531 C 129.863281 136.019531 130.160156 135.996094 130.476562 135.945312 C 130.847656 135.882812 131.238281 135.777344 131.644531 135.621094 C 131.703125 135.597656 131.769531 135.574219 131.832031 135.546875 L 131.839844 135.546875 C 133.136719 135.011719 135.769531 133.367188 139.746094 130.613281 C 142.65625 128.675781 148.085938 123.609375 156.03125 115.414062 C 157 114.417969 156.976562 112.824219 155.976562 111.855469 C 155.488281 111.382812 154.855469 111.144531 154.226562 111.144531 C 153.566406 111.144531 152.910156 111.402344 152.417969 111.910156 C 144.722656 119.847656 139.566406 124.683594 136.957031 126.421875 L 136.917969 126.449219 C 134.933594 127.824219 133.339844 128.890625 132.144531 129.640625 C 133.363281 126.039062 135.027344 120.796875 137.136719 113.90625 L 137.132812 113.90625 L 144.332031 93.621094 L 144.375 93.484375 C 145.585938 89.332031 145.996094 86.125 145.597656 83.867188 C 145.382812 82.644531 144.320312 81.785156 143.121094 81.785156 Z M 143.121094 81.785156 "/><path style=" stroke:none;fill-rule:nonzero;fill:#909092;fill-opacity:1;" d="M 147.667969 73.464844 C 147.847656 73.605469 148.054688 73.726562 148.28125 73.816406 C 149.851562 74.4375 150.839844 75.175781 151.242188 76.027344 L 151.34375 76.21875 C 151.636719 76.71875 151.878906 77.542969 152.074219 78.6875 L 152.0625 78.6875 C 152.074219 79.019531 152.046875 79.261719 151.976562 79.417969 C 151.9375 79.503906 151.902344 79.59375 151.871094 79.6875 C 151.726562 80.140625 151.027344 80.570312 149.785156 80.980469 L 149.777344 80.980469 C 149.183594 81.144531 148.601562 81.226562 148.03125 81.226562 C 147.246094 81.226562 146.480469 81.070312 145.734375 80.761719 L 145.726562 80.761719 C 145.222656 80.523438 144.761719 80.019531 144.351562 79.257812 L 144.335938 79.257812 C 143.90625 78.183594 143.757812 77.421875 143.890625 76.96875 L 143.90625 76.914062 C 144.027344 76.46875 144.3125 76.042969 144.761719 75.628906 C 145.378906 75.070312 146.34375 74.347656 147.652344 73.464844 Z M 147.429688 68.070312 C 146.960938 68.070312 146.484375 68.203125 146.058594 68.480469 C 143.929688 69.867188 142.371094 71.003906 141.386719 71.894531 L 141.378906 71.902344 C 140.203125 72.976562 139.425781 74.207031 139.050781 75.597656 L 139.046875 75.597656 C 138.605469 77.152344 138.808594 78.996094 139.660156 81.128906 L 139.75 81.324219 C 140.707031 83.222656 141.976562 84.550781 143.558594 85.304688 L 143.644531 85.34375 C 145.070312 85.960938 146.527344 86.269531 148.011719 86.269531 C 149.082031 86.269531 150.167969 86.109375 151.269531 85.789062 L 151.347656 85.765625 C 154.09375 84.867188 155.835938 83.445312 156.570312 81.503906 L 156.558594 81.503906 C 157.007812 80.515625 157.175781 79.371094 157.066406 78.058594 L 157.015625 77.722656 L 157.011719 77.722656 L 157.015625 77.722656 C 156.738281 76.136719 156.332031 74.847656 155.796875 73.867188 L 155.789062 73.867188 C 154.816406 71.820312 152.933594 70.242188 150.136719 69.136719 C 149.886719 69.035156 149.625 68.980469 149.371094 68.960938 L 149.355469 68.960938 C 148.867188 68.382812 148.152344 68.070312 147.429688 68.070312 Z M 147.429688 68.070312 "/><path style=" stroke:none;fill-rule:nonzero;fill:#909092;fill-opacity:1;" d="M 135.863281 176.304688 C 135.328125 176.304688 134.789062 176.476562 134.332031 176.824219 C 132.121094 178.519531 129.769531 181.3125 127.277344 185.203125 L 127.253906 185.242188 L 93.90625 239.414062 L 93.890625 239.414062 C 91.121094 243.121094 81.921875 262.53125 66.285156 297.648438 C 65.722656 298.921875 66.292969 300.40625 67.5625 300.972656 C 67.894531 301.121094 68.242188 301.191406 68.585938 301.191406 C 69.550781 301.191406 70.46875 300.636719 70.886719 299.699219 C 86.792969 263.96875 95.808594 244.871094 97.9375 242.410156 C 98.023438 242.308594 98.105469 242.199219 98.175781 242.085938 L 131.542969 187.882812 C 133.707031 184.507812 135.65625 182.152344 137.394531 180.820312 C 138.496094 179.976562 138.707031 178.394531 137.863281 177.292969 C 137.367188 176.644531 136.617188 176.304688 135.863281 176.304688 Z M 135.863281 176.304688 "/><path style=" stroke:none;fill-rule:nonzero;fill:#909092;fill-opacity:1;" d="M 168.183594 204.246094 C 167.277344 204.246094 166.402344 204.738281 165.953125 205.59375 C 164.03125 209.25 161.691406 212.625 158.929688 215.714844 C 109.902344 268.925781 84.164062 297.652344 81.71875 301.898438 C 81.027344 303.101562 81.441406 304.640625 82.644531 305.335938 C 83.042969 305.5625 83.472656 305.671875 83.898438 305.671875 C 84.769531 305.671875 85.617188 305.21875 86.082031 304.410156 C 88.339844 300.488281 113.867188 272.050781 162.65625 219.097656 L 162.683594 219.070312 C 165.71875 215.671875 168.296875 211.960938 170.410156 207.933594 C 171.058594 206.703125 170.582031 205.183594 169.351562 204.535156 C 168.980469 204.339844 168.578125 204.246094 168.183594 204.246094 Z M 168.183594 204.246094 "/><path style=" stroke:none;fill-rule:nonzero;fill:#909092;fill-opacity:1;" d="M 69.636719 301.617188 C 69.601562 301.753906 69.554688 301.910156 69.496094 302.085938 L 69.496094 302.089844 C 68.984375 303.613281 68.351562 304.941406 67.601562 306.078125 L 67.597656 306.078125 C 64.054688 311.054688 61.0625 315.601562 58.632812 319.726562 L 58.628906 319.726562 C 58.238281 320.34375 57.742188 320.984375 57.140625 321.652344 C 56.816406 322.003906 56.519531 322.304688 56.246094 322.558594 C 56.363281 321.902344 56.558594 321.109375 56.835938 320.171875 L 56.832031 320.171875 C 58.539062 315.085938 62.351562 309.042969 68.265625 302.039062 C 68.34375 301.949219 68.410156 301.855469 68.472656 301.757812 L 68.457031 301.757812 C 68.933594 301.667969 69.320312 301.621094 69.621094 301.617188 Z M 69.683594 296.605469 C 68.792969 296.605469 67.789062 296.734375 66.664062 296.992188 C 65.902344 297.164062 65.304688 297.664062 64.976562 298.3125 L 64.960938 298.3125 C 64.765625 298.441406 64.582031 298.601562 64.421875 298.789062 C 58.089844 306.28125 53.96875 312.875 52.058594 318.574219 L 52.035156 318.65625 C 50.957031 322.28125 50.859375 324.988281 51.746094 326.777344 C 51.875 327.03125 52.019531 327.269531 52.183594 327.492188 C 52.539062 327.976562 53.058594 328.316406 53.640625 328.449219 C 53.992188 328.53125 54.347656 328.570312 54.710938 328.570312 C 54.820312 328.570312 54.929688 328.570312 55.042969 328.5625 C 56.875 328.4375 58.8125 327.265625 60.863281 325.042969 L 60.882812 325.023438 C 61.695312 324.117188 62.378906 323.222656 62.933594 322.34375 L 62.96875 322.285156 C 65.339844 318.265625 68.265625 313.8125 71.75 308.929688 L 71.800781 308.855469 C 72.792969 307.351562 73.613281 305.632812 74.265625 303.699219 C 74.667969 302.511719 74.8125 301.453125 74.707031 300.523438 C 74.683594 300.34375 74.65625 300.171875 74.617188 300.003906 C 74.273438 298.492188 73.351562 297.472656 71.855469 296.9375 C 71.234375 296.71875 70.507812 296.605469 69.683594 296.605469 Z M 69.683594 296.605469 "/><g clip-rule="nonzero" clip-path="url(#5cfaab0797)"><path style=" stroke:none;fill-rule:nonzero;fill:#909092;fill-opacity:1;" d="M 79.960938 310.761719 C 78.625 314.925781 77.347656 317.757812 76.136719 319.261719 L 76.066406 319.351562 C 73.949219 322.234375 72.164062 324.394531 70.722656 325.832031 C 70.453125 326.097656 70.203125 326.335938 69.976562 326.539062 C 69.992188 326.371094 70.015625 326.191406 70.035156 326 C 70.195312 324.78125 70.589844 323.65625 71.222656 322.621094 L 71.21875 322.621094 C 74.761719 317.480469 77.671875 313.527344 79.945312 310.761719 Z M 82.710938 301.84375 C 82.210938 301.84375 81.707031 301.992188 81.269531 302.296875 C 78.492188 304.246094 73.757812 310.066406 67.074219 319.761719 L 67.011719 319.855469 C 65.960938 321.535156 65.304688 323.363281 65.042969 325.34375 L 65.042969 325.351562 L 65.035156 325.394531 C 64.859375 326.984375 64.773438 328.035156 64.785156 328.554688 C 64.789062 328.773438 64.808594 328.972656 64.84375 329.152344 C 65.015625 330.199219 65.523438 331.035156 66.363281 331.664062 L 66.347656 331.664062 C 67.027344 332.253906 67.804688 332.550781 68.679688 332.550781 C 69.085938 332.550781 69.519531 332.484375 69.96875 332.355469 C 71.214844 331.996094 72.648438 331.011719 74.273438 329.398438 C 75.882812 327.796875 77.8125 325.46875 80.058594 322.421875 L 80.054688 322.421875 C 82.238281 319.714844 84.414062 314.234375 86.582031 305.972656 C 86.933594 304.625 86.132812 303.25 84.785156 302.898438 C 84.78125 302.894531 84.777344 302.894531 84.773438 302.894531 L 84.757812 302.894531 C 84.269531 302.210938 83.496094 301.84375 82.710938 301.84375 Z M 82.710938 301.84375 "/></g><path style=" stroke:none;fill-rule:nonzero;fill:#909092;fill-opacity:1;" d="M 122 277.128906 C 121.457031 277.128906 120.90625 277.304688 120.445312 277.671875 C 112.191406 284.1875 107.320312 288.253906 105.832031 289.875 L 105.828125 289.875 C 96.511719 299.214844 91.382812 304.683594 90.4375 306.285156 L 90.4375 306.289062 C 90.222656 306.652344 90.082031 307.011719 90.015625 307.359375 C 89.75 308.726562 90.644531 310.042969 92.011719 310.308594 C 92.171875 310.339844 92.332031 310.355469 92.488281 310.355469 C 93.492188 310.355469 94.40625 309.75 94.800781 308.828125 L 94.785156 308.828125 C 95.542969 307.5625 100.4375 302.40625 109.464844 293.355469 L 109.539062 293.28125 C 110.84375 291.859375 115.519531 287.972656 123.5625 281.621094 C 124.65625 280.761719 124.839844 279.175781 123.980469 278.085938 C 123.480469 277.457031 122.746094 277.128906 122 277.128906 Z M 122 277.128906 "/><path style=" stroke:none;fill-rule:nonzero;fill:#909092;fill-opacity:1;" d="M 55.960938 191.117188 Z M 150.394531 128.277344 C 149.5625 128.277344 148.75 128.691406 148.269531 129.441406 C 146.082031 132.875 143.078125 136.179688 139.261719 139.367188 L 139.25 139.367188 L 108.792969 161.253906 L 108.777344 161.253906 C 89.710938 171.191406 75.113281 178.074219 64.972656 181.90625 L 64.835938 181.964844 C 63.597656 182.519531 59.914062 184.59375 53.785156 188.195312 L 53.683594 188.253906 C 52.796875 188.832031 52.132812 189.5625 51.6875 190.445312 L 51.671875 190.445312 C 50.800781 191.898438 51.039062 193.300781 52.386719 194.664062 C 52.621094 194.898438 52.894531 195.128906 53.207031 195.347656 C 53.496094 195.554688 53.824219 195.753906 54.191406 195.953125 C 54.394531 196.0625 54.609375 196.140625 54.832031 196.191406 C 59.820312 197.328125 65.984375 200.070312 73.324219 204.425781 L 73.320312 204.425781 C 73.546875 204.566406 73.800781 204.6875 74.082031 204.789062 C 75.617188 205.335938 79.867188 205.65625 86.828125 205.742188 L 86.8125 205.742188 C 88.332031 205.996094 89.546875 206.445312 90.460938 207.09375 L 90.457031 207.09375 C 91.59375 207.996094 92.476562 209.414062 93.097656 211.339844 L 93.082031 211.339844 L 94.820312 222.433594 C 94.839844 222.566406 94.871094 222.699219 94.914062 222.824219 C 94.921875 222.859375 94.933594 222.894531 94.945312 222.925781 C 95.554688 224.664062 97.441406 226.597656 100.613281 228.71875 C 101.042969 229.007812 101.527344 229.144531 102.011719 229.144531 C 102.820312 229.144531 103.617188 228.753906 104.105469 228.027344 C 104.878906 226.871094 104.566406 225.308594 103.414062 224.535156 C 101.347656 223.152344 100.136719 222.121094 99.773438 221.433594 L 99.757812 221.433594 L 98.011719 210.273438 C 97.992188 210.148438 97.964844 210.027344 97.925781 209.902344 C 96.96875 206.886719 95.476562 204.597656 93.445312 203.039062 L 93.367188 202.980469 C 91.777344 201.855469 89.792969 201.109375 87.417969 200.738281 C 87.300781 200.722656 87.179688 200.710938 87.058594 200.710938 C 80.769531 200.636719 77.046875 200.425781 75.890625 200.082031 L 75.875 200.082031 C 68.90625 195.953125 62.855469 193.167969 57.71875 191.734375 L 57.703125 191.734375 C 62.644531 188.839844 65.664062 187.136719 66.769531 186.617188 L 66.753906 186.617188 C 77.117188 182.699219 91.972656 175.699219 111.320312 165.609375 C 111.425781 165.550781 111.527344 165.488281 111.625 165.421875 L 142.34375 143.34375 L 142.484375 143.234375 C 146.703125 139.714844 150.046875 136.019531 152.515625 132.148438 C 153.261719 130.976562 152.917969 129.417969 151.746094 128.671875 C 151.324219 128.40625 150.855469 128.277344 150.394531 128.277344 Z M 150.394531 128.277344 "/><path style=" stroke:none;fill-rule:nonzero;fill:#909092;fill-opacity:1;" d="M 106.472656 225.839844 C 106.3125 225.839844 106.152344 225.855469 105.992188 225.886719 C 104.625 226.148438 103.734375 227.46875 103.996094 228.835938 C 104.585938 231.886719 105.144531 234.023438 105.671875 235.242188 L 105.722656 235.351562 C 106.453125 236.84375 107.359375 237.902344 108.4375 238.527344 C 108.644531 238.648438 108.859375 238.753906 109.082031 238.839844 L 109.074219 238.839844 C 110.152344 239.316406 111.378906 239.550781 112.753906 239.550781 C 112.84375 239.550781 112.929688 239.550781 113.019531 239.550781 L 113.273438 239.53125 L 118.9375 238.832031 L 118.921875 238.832031 C 122.40625 238.679688 124.519531 238.605469 125.25 238.605469 C 125.316406 238.605469 125.375 238.609375 125.417969 238.609375 L 125.445312 238.609375 L 125.585938 238.617188 C 127.28125 238.636719 128.773438 238.808594 130.0625 239.121094 C 130.152344 239.144531 130.238281 239.160156 130.328125 239.171875 C 131.214844 239.292969 131.953125 240.730469 132.539062 243.488281 C 132.792969 244.671875 133.835938 245.480469 135 245.480469 C 135.171875 245.480469 135.347656 245.464844 135.527344 245.425781 C 136.886719 245.136719 137.753906 243.800781 137.464844 242.441406 C 136.40625 237.46875 134.316406 234.726562 131.1875 234.210938 L 131.171875 234.210938 C 129.554688 233.824219 127.742188 233.613281 125.738281 233.582031 L 125.722656 233.582031 C 125.703125 233.582031 125.683594 233.582031 125.660156 233.578125 C 125.585938 233.578125 125.480469 233.574219 125.347656 233.574219 C 124.433594 233.574219 122.191406 233.652344 118.628906 233.804688 L 118.425781 233.820312 L 112.792969 234.519531 L 112.777344 234.519531 C 112.769531 234.519531 112.761719 234.519531 112.753906 234.519531 C 112.066406 234.519531 111.503906 234.417969 111.066406 234.214844 L 110.957031 234.167969 C 110.777344 234.0625 110.554688 233.757812 110.296875 233.246094 L 110.292969 233.246094 C 109.914062 232.363281 109.460938 230.574219 108.941406 227.878906 C 108.707031 226.675781 107.652344 225.839844 106.472656 225.839844 Z M 106.472656 225.839844 "/><path style=" stroke:none;fill-rule:nonzero;fill:#909092;fill-opacity:1;" d="M 237.433594 131.375 C 236.421875 131.375 235.46875 131.992188 235.085938 132.992188 C 232.691406 139.242188 231.070312 144.226562 230.226562 147.945312 C 230.179688 148.152344 230.160156 148.363281 230.164062 148.574219 C 230.449219 158.761719 225.582031 180.796875 215.558594 214.683594 C 215.503906 214.871094 215.46875 215.066406 215.457031 215.265625 C 215.015625 223.582031 213.015625 236.402344 209.464844 253.730469 C 205.519531 270.816406 202.582031 280.226562 200.65625 281.960938 L 200.636719 281.960938 C 200.246094 282.125 199.902344 282.382812 199.636719 282.71875 C 199.617188 282.746094 199.59375 282.769531 199.574219 282.796875 C 198.816406 283.722656 197.890625 284.183594 196.792969 284.183594 C 195.320312 284.183594 193.539062 283.347656 191.449219 281.675781 L 191.433594 281.675781 C 183.136719 272.640625 176.941406 263.453125 172.839844 254.109375 C 172.78125 253.96875 172.703125 253.832031 172.617188 253.703125 C 171.605469 252.21875 170.234375 250.9375 168.503906 249.863281 L 168.484375 249.863281 C 166.28125 247.570312 161.441406 246.421875 153.972656 246.421875 C 150.703125 246.421875 146.933594 246.640625 142.65625 247.082031 L 139.085938 244.484375 C 138.636719 244.160156 138.121094 244.003906 137.605469 244.003906 C 136.828125 244.003906 136.0625 244.363281 135.570312 245.042969 C 134.75 246.167969 135 247.742188 136.125 248.558594 L 140.480469 251.722656 C 140.910156 252.035156 141.429688 252.203125 141.957031 252.203125 C 142.050781 252.203125 142.140625 252.199219 142.230469 252.1875 C 147.449219 251.621094 151.785156 251.339844 155.234375 251.339844 C 160.574219 251.339844 163.789062 252.019531 164.878906 253.375 C 165.070312 253.613281 165.304688 253.816406 165.570312 253.972656 C 166.78125 254.683594 167.71875 255.5 168.375 256.421875 L 168.359375 256.421875 C 172.695312 266.203125 179.179688 275.785156 187.804688 285.167969 C 187.882812 285.253906 187.972656 285.335938 188.0625 285.410156 C 191.355469 288.105469 194.320312 289.449219 196.960938 289.449219 C 199.277344 289.449219 201.34375 288.417969 203.160156 286.351562 L 203.144531 286.351562 C 203.363281 286.226562 203.578125 286.078125 203.785156 285.910156 C 206.59375 283.601562 210.128906 273.230469 214.382812 254.800781 L 214.398438 254.742188 C 217.949219 237.417969 219.96875 224.46875 220.464844 215.898438 L 220.449219 215.898438 C 230.457031 182.039062 235.375 159.679688 235.207031 148.828125 L 235.191406 148.828125 C 235.996094 145.363281 237.527344 140.683594 239.785156 134.792969 C 240.28125 133.496094 239.632812 132.039062 238.335938 131.542969 C 238.039062 131.429688 237.734375 131.375 237.433594 131.375 Z M 237.433594 131.375 "/><g clip-rule="nonzero" clip-path="url(#87f54f35f3)"><path style=" stroke:none;fill-rule:nonzero;fill:#909092;fill-opacity:1;" d="M 89.648438 160.003906 C 89.035156 160.003906 88.421875 160.226562 87.9375 160.671875 C 82.222656 165.953125 77.117188 169.507812 72.621094 171.34375 L 72.597656 171.351562 C 70.820312 172.101562 69.253906 172.683594 67.902344 173.101562 L 67.890625 173.101562 C 64.074219 174.09375 60.089844 175.214844 55.945312 176.460938 L 55.941406 176.460938 C 54.121094 176.992188 51.476562 177.421875 48.015625 177.75 C 46.632812 177.878906 45.613281 179.105469 45.746094 180.492188 C 45.867188 181.792969 46.964844 182.773438 48.25 182.773438 C 48.328125 182.773438 48.40625 182.769531 48.488281 182.761719 C 52.28125 182.402344 55.246094 181.914062 57.378906 181.289062 L 57.394531 181.28125 C 61.523438 180.039062 65.484375 178.925781 69.277344 177.941406 L 69.386719 177.910156 C 70.890625 177.445312 72.605469 176.8125 74.523438 176.003906 C 79.582031 173.941406 85.195312 170.0625 91.355469 164.371094 C 92.375 163.425781 92.441406 161.835938 91.496094 160.8125 C 91 160.277344 90.324219 160.003906 89.648438 160.003906 Z M 89.648438 160.003906 "/></g></g></svg>